G04 start of page 9 for group -4078 idx -4078 *
G04 Title: (unknown), bottomsilk *
G04 Creator: pcb 20140316 *
G04 CreationDate: Tue 26 Feb 2019 04:39:58 AM GMT UTC *
G04 For: railfan *
G04 Format: Gerber/RS-274X *
G04 PCB-Dimensions (mil): 3200.00 2000.00 *
G04 PCB-Coordinate-Origin: lower left *
%MOIN*%
%FSLAX25Y25*%
%LNBOTTOMSILK*%
%ADD71C,0.0060*%
G54D71*X294000Y21500D02*X295500D01*
X296000Y22000D02*X295500Y21500D01*
X296000Y22000D02*Y25000D01*
X295500Y25500D01*
X294000D02*X295500D01*
X292800Y21500D02*Y25500D01*
X290300Y21500D02*Y25500D01*
Y23500D02*X292800D01*
X287600Y25500D02*X287100Y25000D01*
X287600Y25500D02*X288600D01*
X289100Y25000D02*X288600Y25500D01*
X289100Y22000D02*Y25000D01*
Y22000D02*X288600Y21500D01*
X287600Y23500D02*X287100Y23000D01*
X287600Y23500D02*X289100D01*
X287600Y21500D02*X288600D01*
X287600D02*X287100Y22000D01*
Y23000D01*
X283900Y23500D02*X285900D01*
X274000Y21500D02*X275500D01*
X276000Y22000D02*X275500Y21500D01*
X276000Y22000D02*Y25000D01*
X275500Y25500D01*
X274000D02*X275500D01*
X272800Y21500D02*Y25500D01*
X270300Y21500D02*Y25500D01*
Y23500D02*X272800D01*
X267600Y25500D02*X267100Y25000D01*
X267600Y25500D02*X268600D01*
X269100Y25000D02*X268600Y25500D01*
X269100Y22000D02*Y25000D01*
Y22000D02*X268600Y21500D01*
X267600Y23500D02*X267100Y23000D01*
X267600Y23500D02*X269100D01*
X267600Y21500D02*X268600D01*
X267600D02*X267100Y22000D01*
Y23000D01*
X263900Y23500D02*X265900D01*
X264900Y22500D02*Y24500D01*
X254000Y21500D02*X255500D01*
X256000Y22000D02*X255500Y21500D01*
X256000Y22000D02*Y25000D01*
X255500Y25500D01*
X254000D02*X255500D01*
X252800Y21500D02*Y25500D01*
X250300Y21500D02*Y25500D01*
Y23500D02*X252800D01*
X247100Y25500D02*X249100D01*
Y23500D02*Y25500D01*
Y23500D02*X248600Y24000D01*
X247600D02*X248600D01*
X247600D02*X247100Y23500D01*
Y22000D02*Y23500D01*
X247600Y21500D02*X247100Y22000D01*
X247600Y21500D02*X248600D01*
X249100Y22000D02*X248600Y21500D01*
X243900Y23500D02*X245900D01*
X244900Y22500D02*Y24500D01*
X234000Y21500D02*X235500D01*
X236000Y22000D02*X235500Y21500D01*
X236000Y22000D02*Y25000D01*
X235500Y25500D01*
X234000D02*X235500D01*
X232800Y21500D02*Y25500D01*
X230300Y21500D02*Y25500D01*
Y23500D02*X232800D01*
X227100Y25500D02*X229100D01*
Y23500D02*Y25500D01*
Y23500D02*X228600Y24000D01*
X227600D02*X228600D01*
X227600D02*X227100Y23500D01*
Y22000D02*Y23500D01*
X227600Y21500D02*X227100Y22000D01*
X227600Y21500D02*X228600D01*
X229100Y22000D02*X228600Y21500D01*
X223900Y23500D02*X225900D01*
X232500Y156000D02*X233500Y155000D01*
X232500Y156000D02*X233500Y157000D01*
X235200Y158000D02*X236200D01*
X235700Y154000D02*Y158000D01*
X234700Y155000D02*X235700Y154000D01*
X237400Y157500D02*X237900Y158000D01*
X237400Y154500D02*Y157500D01*
Y154500D02*X237900Y154000D01*
X238900D01*
X239400Y154500D01*
Y157500D01*
X238900Y158000D02*X239400Y157500D01*
X237900Y158000D02*X238900D01*
X237400Y157000D02*X239400Y155000D01*
X240600Y154500D02*Y158000D01*
Y154500D02*X241100Y154000D01*
X242600D01*
X243100Y154500D01*
Y158000D01*
X240600Y156000D02*X243100D01*
X228000Y149500D02*X230000D01*
X229000Y148500D02*Y150500D01*
X231700Y151500D02*X232700D01*
X232200Y147500D02*Y151500D01*
X231200Y148500D02*X232200Y147500D01*
X233900Y148000D02*X234400Y147500D01*
X235900D01*
X236400Y148000D01*
Y149000D01*
X233900Y151500D02*X236400Y149000D01*
X233900Y151500D02*X236400D01*
X237600Y147500D02*Y150500D01*
X238600Y151500D01*
X239600Y150500D01*
Y147500D02*Y150500D01*
X242600Y147500D02*Y150500D01*
X243600Y151500D01*
X246600D01*
X247600Y147500D02*Y150000D01*
Y147500D02*X246600Y146500D01*
X243600D02*X246600D01*
X243600D02*X242600Y147500D01*
X244100Y148500D02*Y149500D01*
X244600Y150000D01*
X245600D01*
X246100Y149500D01*
X246600Y150000D01*
X246100Y148000D02*Y149500D01*
Y148500D02*X245600Y148000D01*
X244600D02*X245600D01*
X244600D02*X244100Y148500D01*
X246600Y150000D02*X247600D01*
X194500Y150500D02*X195000Y151000D01*
X193000Y150500D02*X194500D01*
X192500Y151000D02*X193000Y150500D01*
X192500Y151000D02*Y154000D01*
X193000Y154500D01*
X194500D01*
X195000Y154000D01*
Y153000D02*Y154000D01*
X194500Y152500D02*X195000Y153000D01*
X193500Y152500D02*X194500D01*
X196200Y150500D02*Y154500D01*
Y150500D02*Y151000D01*
X198700Y153500D01*
Y150500D02*Y154500D01*
X200400Y150500D02*Y154500D01*
X201900Y150500D02*X202400Y151000D01*
Y154000D01*
X201900Y154500D02*X202400Y154000D01*
X199900Y154500D02*X201900D01*
X199900Y150500D02*X201900D01*
X170000Y21500D02*X171500D01*
X172000Y22000D02*X171500Y21500D01*
X172000Y22000D02*Y25000D01*
X171500Y25500D01*
X170000D02*X171500D01*
X168800Y21500D02*Y25500D01*
X166300Y21500D02*Y25500D01*
Y23500D02*X168800D01*
X165100D02*X163100Y25500D01*
X162600Y23500D02*X165100D01*
X163100Y21500D02*Y25500D01*
X159400Y23500D02*X161400D01*
X150000Y21500D02*X151500D01*
X152000Y22000D02*X151500Y21500D01*
X152000Y22000D02*Y25000D01*
X151500Y25500D01*
X150000D02*X151500D01*
X148800Y21500D02*Y25500D01*
X146300Y21500D02*Y25500D01*
Y23500D02*X148800D01*
X145100D02*X143100Y25500D01*
X142600Y23500D02*X145100D01*
X143100Y21500D02*Y25500D01*
X139400Y23500D02*X141400D01*
X140400Y22500D02*Y24500D01*
X129733Y21500D02*X131233D01*
X131733Y22000D02*X131233Y21500D01*
X131733Y22000D02*Y25000D01*
X131233Y25500D01*
X129733D02*X131233D01*
X128533Y21500D02*Y25500D01*
X126033Y21500D02*Y25500D01*
Y23500D02*X128533D01*
X124833Y25000D02*X124333Y25500D01*
X123333D02*X124333D01*
X123333D02*X122833Y25000D01*
Y22000D02*Y25000D01*
X123333Y21500D02*X122833Y22000D01*
X123333Y21500D02*X124333D01*
X124833Y22000D02*X124333Y21500D01*
X122833Y23500D02*X124333D01*
X119633D02*X121633D01*
X120633Y22500D02*Y24500D01*
X109768Y21500D02*X111268D01*
X111768Y22000D02*X111268Y21500D01*
X111768Y22000D02*Y25000D01*
X111268Y25500D01*
X109768D02*X111268D01*
X108568Y21500D02*Y25500D01*
X106068Y21500D02*Y25500D01*
Y23500D02*X108568D01*
X104868Y25000D02*X104368Y25500D01*
X103368D02*X104368D01*
X103368D02*X102868Y25000D01*
Y22000D02*Y25000D01*
X103368Y21500D02*X102868Y22000D01*
X103368Y21500D02*X104368D01*
X104868Y22000D02*X104368Y21500D01*
X102868Y23500D02*X104368D01*
X99668D02*X101668D01*
X90000Y21500D02*X91500D01*
X92000Y22000D02*X91500Y21500D01*
X92000Y22000D02*Y25000D01*
X91500Y25500D01*
X90000D02*X91500D01*
X88800Y21500D02*Y25500D01*
X86300Y21500D02*Y25500D01*
Y23500D02*X88800D01*
X85100Y25000D02*X84600Y25500D01*
X83100D02*X84600D01*
X83100D02*X82600Y25000D01*
Y24000D02*Y25000D01*
X85100Y21500D02*X82600Y24000D01*
Y21500D02*X85100D01*
X79400Y23500D02*X81400D01*
X70000Y21500D02*X71500D01*
X72000Y22000D02*X71500Y21500D01*
X72000Y22000D02*Y25000D01*
X71500Y25500D01*
X70000D02*X71500D01*
X68800Y21500D02*Y25500D01*
X66300Y21500D02*Y25500D01*
Y23500D02*X68800D01*
X65100Y25000D02*X64600Y25500D01*
X63100D02*X64600D01*
X63100D02*X62600Y25000D01*
Y24000D02*Y25000D01*
X65100Y21500D02*X62600Y24000D01*
Y21500D02*X65100D01*
X59400Y23500D02*X61400D01*
X60400Y22500D02*Y24500D01*
X50000Y21500D02*X51500D01*
X52000Y22000D02*X51500Y21500D01*
X52000Y22000D02*Y25000D01*
X51500Y25500D01*
X50000D02*X51500D01*
X48800Y21500D02*Y25500D01*
X46300Y21500D02*Y25500D01*
Y23500D02*X48800D01*
X43600Y21500D02*X44600D01*
X44100D02*Y25500D01*
X45100Y24500D02*X44100Y25500D01*
X40400Y23500D02*X42400D01*
X41400Y22500D02*Y24500D01*
X30500Y21500D02*X32000D01*
X32500Y22000D02*X32000Y21500D01*
X32500Y22000D02*Y25000D01*
X32000Y25500D01*
X30500D02*X32000D01*
X29300Y21500D02*Y25500D01*
X26800Y21500D02*Y25500D01*
Y23500D02*X29300D01*
X24100Y21500D02*X25100D01*
X24600D02*Y25500D01*
X25600Y24500D02*X24600Y25500D01*
X20900Y23500D02*X22900D01*
M02*
