M48
INCH
T50C0.020
T49C0.055
T48C0.129
T47C0.064
T46C0.048
%
T50
X002650Y010000
X002650Y009450
X003800Y012650
X004400Y008300
X004400Y007750
X004650Y014950
X004900Y016800
X004993Y007064
X005100Y014950
X005350Y016800
X005500Y008900
X005500Y007050
X005550Y014950
X005800Y016800
X005850Y018700
X006000Y014950
X006043Y007064
X006550Y007050
X006850Y013350
X006900Y008300
X006900Y007750
X007000Y012600
X007400Y018700
X007550Y013250
X008100Y013250
X008300Y017950
X008760Y017950
X009100Y018700
X010650Y010000
X010650Y009450
X010850Y018700
X011300Y013910
X011800Y013900
X011950Y017950
X011950Y017450
X012200Y016150
X012200Y015600
X012250Y008300
X012250Y007750
X012950Y007050
X013150Y012100
X013457Y007036
X013500Y008900
X014000Y007050
X014507Y007036
X014800Y013800
X014900Y008300
X014900Y007750
X015000Y012620
X018250Y006150
X018250Y005700
X018250Y005250
X018250Y003600
X018250Y003100
X018250Y001900
X018250Y001350
X018700Y006150
X018700Y005700
X018700Y005250
X018800Y003600
X018800Y003100
X018800Y001900
X018800Y001350
X019100Y007950
X019100Y006750
X019150Y006150
X019150Y005700
X019150Y005250
X019350Y003600
X019350Y003100
X019350Y001900
X019350Y001350
X019600Y006150
X019900Y003600
X019900Y003100
X019900Y001900
X019900Y001350
X020050Y006150
X020500Y006150
X021250Y009850
X021250Y009400
X021250Y008950
X021250Y008500
X021250Y008050
X021250Y007600
X021250Y007150
X021800Y009850
X021800Y009400
X021800Y008950
X021800Y008500
X021800Y008050
X021800Y007600
X021800Y007150
X023100Y010000
X023100Y009450
X024700Y008300
X024700Y007750
X025400Y007050
X025600Y012100
X025907Y007036
X025950Y008900
X026450Y007050
X026957Y007036
X027350Y008300
X027350Y007750
X028500Y012100
T46
X002750Y001350
X004750Y001350
X006750Y001350
X008750Y001350
X010750Y001350
X012750Y001350
X014750Y001350
X016750Y001350
X023200Y001350
X025200Y001350
X027200Y001350
X029200Y001350
T49
X019750Y016600
X021750Y016600
X023750Y016600
T47
X018430Y012650
X018430Y007350
X019770Y012650
X019770Y007350
T48
X001700Y018300
X001700Y007300
X030300Y018300
X030300Y007300
M30
