G04 start of page 7 for group -4062 idx -4062 *
G04 Title: (unknown), soldermask *
G04 Creator: pcb 20140316 *
G04 CreationDate: Tue 26 Feb 2019 04:39:58 AM GMT UTC *
G04 For: railfan *
G04 Format: Gerber/RS-274X *
G04 PCB-Dimensions (mil): 3200.00 2000.00 *
G04 PCB-Coordinate-Origin: lower left *
%MOIN*%
%FSLAX25Y25*%
%LNBOTTOMMASK*%
%ADD68C,0.0960*%
%ADD67C,0.2997*%
%ADD66C,0.1000*%
%ADD65C,0.0860*%
%ADD64C,0.0001*%
G54D64*G36*
X227700Y17800D02*Y9200D01*
X236300D01*
Y17800D01*
X227700D01*
G37*
G54D65*X252000Y13500D03*
G54D64*G36*
X267700Y17800D02*Y9200D01*
X276300D01*
Y17800D01*
X267700D01*
G37*
G54D65*X292000Y13500D03*
G54D66*X184300Y73500D03*
X197700D03*
G54D67*X303000Y73000D03*
G54D64*G36*
X143200Y17800D02*Y9200D01*
X151800D01*
Y17800D01*
X143200D01*
G37*
G54D65*X167500Y13500D03*
G54D64*G36*
X103200Y17800D02*Y9200D01*
X111800D01*
Y17800D01*
X103200D01*
G37*
G54D65*X127500Y13500D03*
G54D64*G36*
X63200Y17800D02*Y9200D01*
X71800D01*
Y17800D01*
X63200D01*
G37*
G36*
X23200D02*Y9200D01*
X31800D01*
Y17800D01*
X23200D01*
G37*
G54D65*X47500Y13500D03*
G54D67*X17000Y73000D03*
G54D65*X87500Y13500D03*
G54D67*X303000Y183000D03*
X17000D03*
G54D64*G36*
X232700Y170800D02*Y161200D01*
X242300D01*
Y170800D01*
X232700D01*
G37*
G54D68*X217500Y166000D03*
X197500D03*
G54D66*X184300Y126500D03*
X197700D03*
M02*
