G04 start of page 3 for group 1 idx 1 *
G04 Title: (unknown), solder *
G04 Creator: pcb 20140316 *
G04 CreationDate: Tue 26 Feb 2019 04:39:58 AM GMT UTC *
G04 For: railfan *
G04 Format: Gerber/RS-274X *
G04 PCB-Dimensions (mil): 3200.00 2000.00 *
G04 PCB-Coordinate-Origin: lower left *
%MOIN*%
%FSLAX25Y25*%
%LNBOTTOM*%
%ADD44C,0.0550*%
%ADD43C,0.1285*%
%ADD42C,0.0640*%
%ADD41C,0.0480*%
%ADD40C,0.0200*%
%ADD39C,0.0360*%
%ADD38C,0.0900*%
%ADD37C,0.2937*%
%ADD36C,0.0940*%
%ADD35C,0.0800*%
%ADD34C,0.0100*%
%ADD33C,0.0001*%
G54D33*G36*
X209500Y104000D02*X301500D01*
Y90620D01*
X300225Y90520D01*
X297518Y89870D01*
X294947Y88805D01*
X292574Y87351D01*
X290457Y85543D01*
X288649Y83426D01*
X287195Y81053D01*
X286130Y78482D01*
X285480Y75775D01*
X285261Y73000D01*
X285480Y70225D01*
X286130Y67518D01*
X286552Y66500D01*
X209500D01*
Y104000D01*
G37*
G36*
X291992Y59146D02*X292574Y58649D01*
X294947Y57195D01*
X297518Y56130D01*
X300225Y55480D01*
X301500Y55380D01*
Y1500D01*
X291992D01*
Y8385D01*
X292000Y8384D01*
X292800Y8447D01*
X293581Y8635D01*
X294322Y8942D01*
X295007Y9361D01*
X295617Y9883D01*
X296139Y10493D01*
X296558Y11178D01*
X296865Y11919D01*
X297053Y12700D01*
X297100Y13500D01*
X297053Y14300D01*
X296865Y15081D01*
X296558Y15822D01*
X296139Y16507D01*
X295617Y17117D01*
X295007Y17639D01*
X294322Y18058D01*
X293581Y18365D01*
X292800Y18553D01*
X292000Y18616D01*
X291992Y18615D01*
Y59146D01*
G37*
G36*
X276550Y64500D02*X287469D01*
X288649Y62574D01*
X290457Y60457D01*
X291992Y59146D01*
Y18615D01*
X291200Y18553D01*
X290419Y18365D01*
X289678Y18058D01*
X288993Y17639D01*
X288383Y17117D01*
X287861Y16507D01*
X287442Y15822D01*
X287135Y15081D01*
X286947Y14300D01*
X286884Y13500D01*
X286947Y12700D01*
X287135Y11919D01*
X287442Y11178D01*
X287861Y10493D01*
X288383Y9883D01*
X288993Y9361D01*
X289678Y8942D01*
X290419Y8635D01*
X291200Y8447D01*
X291992Y8385D01*
Y1500D01*
X276550D01*
Y10048D01*
X276636Y10055D01*
X276720Y10075D01*
X276800Y10108D01*
X276874Y10154D01*
X276940Y10210D01*
X276996Y10276D01*
X277042Y10350D01*
X277075Y10430D01*
X277095Y10514D01*
X277100Y10600D01*
Y16400D01*
X277095Y16486D01*
X277075Y16570D01*
X277042Y16650D01*
X276996Y16724D01*
X276940Y16790D01*
X276874Y16846D01*
X276800Y16892D01*
X276720Y16925D01*
X276636Y16945D01*
X276550Y16952D01*
Y64500D01*
G37*
G36*
X272000D02*X276550D01*
Y16952D01*
X276464Y16945D01*
X276380Y16925D01*
X276300Y16892D01*
X276226Y16846D01*
X276160Y16790D01*
X276104Y16724D01*
X276058Y16650D01*
X276025Y16570D01*
X276005Y16486D01*
X276000Y16400D01*
Y10600D01*
X276005Y10514D01*
X276025Y10430D01*
X276058Y10350D01*
X276104Y10276D01*
X276160Y10210D01*
X276226Y10154D01*
X276300Y10108D01*
X276380Y10075D01*
X276464Y10055D01*
X276550Y10048D01*
Y1500D01*
X272000D01*
Y8400D01*
X274900D01*
X274986Y8405D01*
X275070Y8425D01*
X275150Y8458D01*
X275224Y8504D01*
X275290Y8560D01*
X275346Y8626D01*
X275392Y8700D01*
X275425Y8780D01*
X275445Y8864D01*
X275452Y8950D01*
X275445Y9036D01*
X275425Y9120D01*
X275392Y9200D01*
X275346Y9274D01*
X275290Y9340D01*
X275224Y9396D01*
X275150Y9442D01*
X275070Y9475D01*
X274986Y9495D01*
X274900Y9500D01*
X272000D01*
Y17500D01*
X274900D01*
X274986Y17505D01*
X275070Y17525D01*
X275150Y17558D01*
X275224Y17604D01*
X275290Y17660D01*
X275346Y17726D01*
X275392Y17800D01*
X275425Y17880D01*
X275445Y17964D01*
X275452Y18050D01*
X275445Y18136D01*
X275425Y18220D01*
X275392Y18300D01*
X275346Y18374D01*
X275290Y18440D01*
X275224Y18496D01*
X275150Y18542D01*
X275070Y18575D01*
X274986Y18595D01*
X274900Y18600D01*
X272000D01*
Y64500D01*
G37*
G36*
X267450D02*X272000D01*
Y18600D01*
X269100D01*
X269014Y18595D01*
X268930Y18575D01*
X268850Y18542D01*
X268776Y18496D01*
X268710Y18440D01*
X268654Y18374D01*
X268608Y18300D01*
X268575Y18220D01*
X268555Y18136D01*
X268548Y18050D01*
X268555Y17964D01*
X268575Y17880D01*
X268608Y17800D01*
X268654Y17726D01*
X268710Y17660D01*
X268776Y17604D01*
X268850Y17558D01*
X268930Y17525D01*
X269014Y17505D01*
X269100Y17500D01*
X272000D01*
Y9500D01*
X269100D01*
X269014Y9495D01*
X268930Y9475D01*
X268850Y9442D01*
X268776Y9396D01*
X268710Y9340D01*
X268654Y9274D01*
X268608Y9200D01*
X268575Y9120D01*
X268555Y9036D01*
X268548Y8950D01*
X268555Y8864D01*
X268575Y8780D01*
X268608Y8700D01*
X268654Y8626D01*
X268710Y8560D01*
X268776Y8504D01*
X268850Y8458D01*
X268930Y8425D01*
X269014Y8405D01*
X269100Y8400D01*
X272000D01*
Y1500D01*
X267450D01*
Y10048D01*
X267536Y10055D01*
X267620Y10075D01*
X267700Y10108D01*
X267774Y10154D01*
X267840Y10210D01*
X267896Y10276D01*
X267942Y10350D01*
X267975Y10430D01*
X267995Y10514D01*
X268000Y10600D01*
Y16400D01*
X267995Y16486D01*
X267975Y16570D01*
X267942Y16650D01*
X267896Y16724D01*
X267840Y16790D01*
X267774Y16846D01*
X267700Y16892D01*
X267620Y16925D01*
X267536Y16945D01*
X267450Y16952D01*
Y64500D01*
G37*
G36*
X256080D02*X267450D01*
Y16952D01*
X267364Y16945D01*
X267280Y16925D01*
X267200Y16892D01*
X267126Y16846D01*
X267060Y16790D01*
X267004Y16724D01*
X266958Y16650D01*
X266925Y16570D01*
X266905Y16486D01*
X266900Y16400D01*
Y10600D01*
X266905Y10514D01*
X266925Y10430D01*
X266958Y10350D01*
X267004Y10276D01*
X267060Y10210D01*
X267126Y10154D01*
X267200Y10108D01*
X267280Y10075D01*
X267364Y10055D01*
X267450Y10048D01*
Y1500D01*
X256080D01*
Y10788D01*
X256090Y10802D01*
X256320Y11177D01*
X256511Y11573D01*
X256665Y11985D01*
X256782Y12409D01*
X256861Y12842D01*
X256900Y13280D01*
Y13720D01*
X256861Y14158D01*
X256782Y14591D01*
X256665Y15015D01*
X256511Y15427D01*
X256320Y15823D01*
X256094Y16201D01*
X256080Y16220D01*
Y64500D01*
G37*
G36*
X252002D02*X256080D01*
Y16220D01*
X256051Y16258D01*
X255999Y16306D01*
X255939Y16346D01*
X255875Y16377D01*
X255806Y16397D01*
X255735Y16405D01*
X255664Y16403D01*
X255594Y16389D01*
X255526Y16365D01*
X255464Y16331D01*
X255407Y16287D01*
X255359Y16234D01*
X255319Y16175D01*
X255288Y16111D01*
X255268Y16042D01*
X255260Y15971D01*
X255262Y15900D01*
X255276Y15829D01*
X255300Y15762D01*
X255336Y15700D01*
X255523Y15395D01*
X255678Y15071D01*
X255804Y14735D01*
X255900Y14390D01*
X255964Y14037D01*
X255996Y13679D01*
Y13321D01*
X255964Y12963D01*
X255900Y12610D01*
X255804Y12265D01*
X255678Y11929D01*
X255523Y11605D01*
X255339Y11297D01*
X255304Y11236D01*
X255279Y11170D01*
X255266Y11100D01*
X255264Y11029D01*
X255272Y10959D01*
X255292Y10891D01*
X255322Y10827D01*
X255362Y10768D01*
X255410Y10716D01*
X255466Y10673D01*
X255528Y10639D01*
X255595Y10614D01*
X255664Y10601D01*
X255735Y10599D01*
X255805Y10607D01*
X255873Y10627D01*
X255937Y10657D01*
X255996Y10697D01*
X256048Y10745D01*
X256080Y10788D01*
Y1500D01*
X252002D01*
Y8600D01*
X252220D01*
X252658Y8639D01*
X253091Y8718D01*
X253515Y8835D01*
X253927Y8989D01*
X254323Y9180D01*
X254701Y9406D01*
X254758Y9449D01*
X254806Y9501D01*
X254846Y9561D01*
X254877Y9625D01*
X254897Y9694D01*
X254905Y9765D01*
X254903Y9836D01*
X254889Y9906D01*
X254865Y9974D01*
X254831Y10036D01*
X254787Y10093D01*
X254734Y10141D01*
X254675Y10181D01*
X254611Y10212D01*
X254542Y10232D01*
X254471Y10240D01*
X254400Y10238D01*
X254329Y10224D01*
X254262Y10200D01*
X254200Y10164D01*
X253895Y9977D01*
X253571Y9822D01*
X253235Y9696D01*
X252890Y9600D01*
X252537Y9536D01*
X252179Y9504D01*
X252002D01*
Y17496D01*
X252179D01*
X252537Y17464D01*
X252890Y17400D01*
X253235Y17304D01*
X253571Y17178D01*
X253895Y17023D01*
X254203Y16839D01*
X254264Y16804D01*
X254330Y16779D01*
X254400Y16766D01*
X254471Y16764D01*
X254541Y16772D01*
X254609Y16792D01*
X254673Y16822D01*
X254732Y16862D01*
X254784Y16910D01*
X254827Y16966D01*
X254861Y17028D01*
X254886Y17095D01*
X254899Y17164D01*
X254901Y17235D01*
X254893Y17305D01*
X254873Y17373D01*
X254843Y17437D01*
X254803Y17496D01*
X254755Y17548D01*
X254698Y17590D01*
X254323Y17820D01*
X253927Y18011D01*
X253515Y18165D01*
X253091Y18282D01*
X252658Y18361D01*
X252220Y18400D01*
X252002D01*
Y64500D01*
G37*
G36*
X247920D02*X252002D01*
Y18400D01*
X251780D01*
X251342Y18361D01*
X250909Y18282D01*
X250485Y18165D01*
X250073Y18011D01*
X249677Y17820D01*
X249299Y17594D01*
X249242Y17551D01*
X249194Y17499D01*
X249154Y17439D01*
X249123Y17375D01*
X249103Y17306D01*
X249095Y17235D01*
X249097Y17164D01*
X249111Y17094D01*
X249135Y17026D01*
X249169Y16964D01*
X249213Y16907D01*
X249266Y16859D01*
X249325Y16819D01*
X249389Y16788D01*
X249458Y16768D01*
X249529Y16760D01*
X249600Y16762D01*
X249671Y16776D01*
X249738Y16800D01*
X249800Y16836D01*
X250105Y17023D01*
X250429Y17178D01*
X250765Y17304D01*
X251110Y17400D01*
X251463Y17464D01*
X251821Y17496D01*
X252002D01*
Y9504D01*
X251821D01*
X251463Y9536D01*
X251110Y9600D01*
X250765Y9696D01*
X250429Y9822D01*
X250105Y9977D01*
X249797Y10161D01*
X249736Y10196D01*
X249670Y10221D01*
X249600Y10234D01*
X249529Y10236D01*
X249459Y10228D01*
X249391Y10208D01*
X249327Y10178D01*
X249268Y10138D01*
X249216Y10090D01*
X249173Y10034D01*
X249139Y9972D01*
X249114Y9905D01*
X249101Y9836D01*
X249099Y9765D01*
X249107Y9695D01*
X249127Y9627D01*
X249157Y9563D01*
X249197Y9504D01*
X249245Y9452D01*
X249302Y9410D01*
X249677Y9180D01*
X250073Y8989D01*
X250485Y8835D01*
X250909Y8718D01*
X251342Y8639D01*
X251780Y8600D01*
X252002D01*
Y1500D01*
X247920D01*
Y10780D01*
X247949Y10742D01*
X248001Y10694D01*
X248061Y10654D01*
X248125Y10623D01*
X248194Y10603D01*
X248265Y10595D01*
X248336Y10597D01*
X248406Y10611D01*
X248474Y10635D01*
X248536Y10669D01*
X248593Y10713D01*
X248641Y10766D01*
X248681Y10825D01*
X248712Y10889D01*
X248732Y10958D01*
X248740Y11029D01*
X248738Y11100D01*
X248724Y11171D01*
X248700Y11238D01*
X248664Y11300D01*
X248477Y11605D01*
X248322Y11929D01*
X248196Y12265D01*
X248100Y12610D01*
X248036Y12963D01*
X248004Y13321D01*
Y13679D01*
X248036Y14037D01*
X248100Y14390D01*
X248196Y14735D01*
X248322Y15071D01*
X248477Y15395D01*
X248661Y15703D01*
X248696Y15764D01*
X248721Y15830D01*
X248734Y15900D01*
X248736Y15971D01*
X248728Y16041D01*
X248708Y16109D01*
X248678Y16173D01*
X248638Y16232D01*
X248590Y16284D01*
X248534Y16327D01*
X248472Y16361D01*
X248405Y16386D01*
X248336Y16399D01*
X248265Y16401D01*
X248195Y16393D01*
X248127Y16373D01*
X248063Y16343D01*
X248004Y16303D01*
X247952Y16255D01*
X247920Y16212D01*
Y64500D01*
G37*
G36*
X232000D02*X247920D01*
Y16212D01*
X247910Y16198D01*
X247680Y15823D01*
X247489Y15427D01*
X247335Y15015D01*
X247218Y14591D01*
X247139Y14158D01*
X247100Y13720D01*
Y13280D01*
X247139Y12842D01*
X247218Y12409D01*
X247335Y11985D01*
X247489Y11573D01*
X247680Y11177D01*
X247906Y10799D01*
X247920Y10780D01*
Y1500D01*
X232000D01*
Y8405D01*
X236173Y8410D01*
X236341Y8451D01*
X236501Y8517D01*
X236649Y8607D01*
X236780Y8720D01*
X236893Y8851D01*
X236983Y8999D01*
X237049Y9159D01*
X237090Y9327D01*
X237100Y9500D01*
X237090Y17673D01*
X237049Y17841D01*
X236983Y18001D01*
X236893Y18149D01*
X236780Y18280D01*
X236649Y18393D01*
X236501Y18483D01*
X236341Y18549D01*
X236173Y18590D01*
X236000Y18600D01*
X232000Y18595D01*
Y64500D01*
G37*
G36*
X209500D02*X232000D01*
Y18595D01*
X227827Y18590D01*
X227659Y18549D01*
X227499Y18483D01*
X227351Y18393D01*
X227220Y18280D01*
X227107Y18149D01*
X227017Y18001D01*
X226951Y17841D01*
X226910Y17673D01*
X226900Y17500D01*
X226910Y9327D01*
X226951Y9159D01*
X227017Y8999D01*
X227107Y8851D01*
X227220Y8720D01*
X227351Y8607D01*
X227499Y8517D01*
X227659Y8451D01*
X227827Y8410D01*
X228000Y8400D01*
X232000Y8405D01*
Y1500D01*
X209500D01*
Y64500D01*
G37*
G36*
X163000Y104000D02*X228000D01*
Y84500D01*
X163000D01*
Y104000D01*
G37*
G36*
X18000D02*X171000D01*
Y66500D01*
X33665D01*
X34061Y67456D01*
X34718Y70194D01*
X34884Y73000D01*
X34718Y75806D01*
X34061Y78544D01*
X32984Y81144D01*
X31513Y83544D01*
X29685Y85685D01*
X27544Y87513D01*
X25144Y88984D01*
X22544Y90061D01*
X19806Y90718D01*
X18000Y90860D01*
Y104000D01*
G37*
G36*
X19000Y128000D02*X77879D01*
X77898Y127981D01*
X77936Y127936D01*
X78116Y127783D01*
X78317Y127659D01*
X78535Y127569D01*
X78765Y127514D01*
X79000Y127495D01*
X79059Y127500D01*
X118941D01*
X119000Y127495D01*
X119235Y127514D01*
X119235Y127514D01*
X119465Y127569D01*
X119683Y127659D01*
X119884Y127783D01*
X120064Y127936D01*
X120102Y127981D01*
X120121Y128000D01*
X162500D01*
Y114000D01*
X19000D01*
Y128000D01*
G37*
G36*
X202867Y82500D02*X208000D01*
Y64000D01*
X202867D01*
Y70158D01*
X202889Y70167D01*
X202998Y70230D01*
X203095Y70309D01*
X203179Y70403D01*
X203245Y70510D01*
X203497Y71018D01*
X203697Y71548D01*
X203848Y72094D01*
X203949Y72652D01*
X204000Y73217D01*
Y73783D01*
X203949Y74348D01*
X203848Y74906D01*
X203697Y75452D01*
X203497Y75982D01*
X203251Y76493D01*
X203183Y76600D01*
X203099Y76694D01*
X203000Y76774D01*
X202891Y76838D01*
X202867Y76847D01*
Y82500D01*
G37*
G36*
X197702D02*X202867D01*
Y76847D01*
X202773Y76884D01*
X202649Y76910D01*
X202522Y76917D01*
X202396Y76904D01*
X202274Y76872D01*
X202158Y76821D01*
X202052Y76752D01*
X201957Y76668D01*
X201877Y76569D01*
X201814Y76460D01*
X201768Y76342D01*
X201741Y76218D01*
X201734Y76091D01*
X201747Y75965D01*
X201779Y75843D01*
X201833Y75728D01*
X202021Y75350D01*
X202169Y74955D01*
X202282Y74548D01*
X202357Y74132D01*
X202395Y73711D01*
Y73289D01*
X202357Y72868D01*
X202282Y72452D01*
X202169Y72045D01*
X202021Y71650D01*
X201837Y71269D01*
X201784Y71155D01*
X201752Y71034D01*
X201739Y70908D01*
X201746Y70783D01*
X201772Y70660D01*
X201818Y70542D01*
X201881Y70433D01*
X201961Y70336D01*
X202055Y70252D01*
X202160Y70183D01*
X202276Y70133D01*
X202397Y70100D01*
X202523Y70088D01*
X202648Y70095D01*
X202771Y70121D01*
X202867Y70158D01*
Y64000D01*
X197702D01*
Y67200D01*
X197983D01*
X198548Y67251D01*
X199106Y67352D01*
X199652Y67503D01*
X200182Y67703D01*
X200693Y67949D01*
X200800Y68017D01*
X200894Y68101D01*
X200974Y68200D01*
X201038Y68309D01*
X201084Y68427D01*
X201110Y68551D01*
X201117Y68678D01*
X201104Y68804D01*
X201072Y68926D01*
X201021Y69042D01*
X200952Y69148D01*
X200868Y69243D01*
X200769Y69323D01*
X200660Y69386D01*
X200542Y69432D01*
X200418Y69459D01*
X200291Y69466D01*
X200165Y69453D01*
X200043Y69421D01*
X199928Y69367D01*
X199550Y69179D01*
X199155Y69031D01*
X198748Y68918D01*
X198332Y68843D01*
X197911Y68805D01*
X197702D01*
Y78195D01*
X197911D01*
X198332Y78157D01*
X198748Y78082D01*
X199155Y77969D01*
X199550Y77821D01*
X199931Y77637D01*
X200045Y77584D01*
X200166Y77552D01*
X200292Y77539D01*
X200417Y77546D01*
X200540Y77572D01*
X200658Y77618D01*
X200767Y77681D01*
X200864Y77761D01*
X200948Y77855D01*
X201017Y77960D01*
X201067Y78076D01*
X201100Y78197D01*
X201112Y78323D01*
X201105Y78448D01*
X201079Y78571D01*
X201033Y78689D01*
X200970Y78798D01*
X200891Y78895D01*
X200797Y78979D01*
X200690Y79045D01*
X200182Y79297D01*
X199652Y79497D01*
X199106Y79648D01*
X198548Y79749D01*
X197983Y79800D01*
X197702D01*
Y82500D01*
G37*
G36*
X193000D02*X197702D01*
Y79800D01*
X197417D01*
X196852Y79749D01*
X196294Y79648D01*
X195748Y79497D01*
X195218Y79297D01*
X194707Y79051D01*
X194600Y78983D01*
X194506Y78899D01*
X194426Y78800D01*
X194362Y78691D01*
X194316Y78573D01*
X194290Y78449D01*
X194283Y78322D01*
X194296Y78196D01*
X194328Y78074D01*
X194379Y77958D01*
X194448Y77852D01*
X194532Y77757D01*
X194631Y77677D01*
X194740Y77614D01*
X194858Y77568D01*
X194982Y77541D01*
X195109Y77534D01*
X195235Y77547D01*
X195357Y77579D01*
X195472Y77633D01*
X195850Y77821D01*
X196245Y77969D01*
X196652Y78082D01*
X197068Y78157D01*
X197489Y78195D01*
X197702D01*
Y68805D01*
X197489D01*
X197068Y68843D01*
X196652Y68918D01*
X196245Y69031D01*
X195850Y69179D01*
X195469Y69363D01*
X195355Y69416D01*
X195234Y69448D01*
X195108Y69461D01*
X194983Y69454D01*
X194860Y69428D01*
X194742Y69382D01*
X194633Y69319D01*
X194536Y69239D01*
X194452Y69145D01*
X194383Y69040D01*
X194333Y68924D01*
X194300Y68803D01*
X194288Y68677D01*
X194295Y68552D01*
X194321Y68429D01*
X194367Y68311D01*
X194430Y68202D01*
X194509Y68105D01*
X194603Y68021D01*
X194710Y67955D01*
X195218Y67703D01*
X195748Y67503D01*
X196294Y67352D01*
X196852Y67251D01*
X197417Y67200D01*
X197702D01*
Y64000D01*
X193000D01*
Y70095D01*
X193004Y70096D01*
X193126Y70128D01*
X193242Y70179D01*
X193348Y70248D01*
X193443Y70332D01*
X193523Y70431D01*
X193586Y70540D01*
X193632Y70658D01*
X193659Y70782D01*
X193666Y70909D01*
X193653Y71035D01*
X193621Y71157D01*
X193567Y71272D01*
X193379Y71650D01*
X193231Y72045D01*
X193118Y72452D01*
X193043Y72868D01*
X193005Y73289D01*
Y73711D01*
X193043Y74132D01*
X193118Y74548D01*
X193231Y74955D01*
X193379Y75350D01*
X193563Y75731D01*
X193616Y75845D01*
X193648Y75966D01*
X193661Y76092D01*
X193654Y76217D01*
X193628Y76340D01*
X193582Y76458D01*
X193519Y76567D01*
X193439Y76664D01*
X193345Y76748D01*
X193240Y76817D01*
X193124Y76867D01*
X193003Y76900D01*
X193000Y76900D01*
Y82500D01*
G37*
G36*
X192533D02*X200000D01*
Y79366D01*
X199652Y79497D01*
X199106Y79648D01*
X198548Y79749D01*
X197983Y79800D01*
X197417D01*
X196852Y79749D01*
X196294Y79648D01*
X195748Y79497D01*
X195218Y79297D01*
X194707Y79051D01*
X194600Y78983D01*
X194506Y78899D01*
X194426Y78800D01*
X194362Y78691D01*
X194316Y78573D01*
X194290Y78449D01*
X194283Y78322D01*
X194296Y78196D01*
X194328Y78074D01*
X194379Y77958D01*
X194448Y77852D01*
X194532Y77757D01*
X194631Y77677D01*
X194740Y77614D01*
X194858Y77568D01*
X194982Y77541D01*
X195109Y77534D01*
X195235Y77547D01*
X195357Y77579D01*
X195472Y77633D01*
X195850Y77821D01*
X196245Y77969D01*
X196652Y78082D01*
X197068Y78157D01*
X197489Y78195D01*
X197911D01*
X198332Y78157D01*
X198748Y78082D01*
X199155Y77969D01*
X199550Y77821D01*
X199931Y77637D01*
X200000Y77605D01*
Y69401D01*
X199928Y69367D01*
X199550Y69179D01*
X199155Y69031D01*
X198748Y68918D01*
X198332Y68843D01*
X197911Y68805D01*
X197489D01*
X197068Y68843D01*
X196652Y68918D01*
X196245Y69031D01*
X195850Y69179D01*
X195469Y69363D01*
X195355Y69416D01*
X195234Y69448D01*
X195108Y69461D01*
X194983Y69454D01*
X194860Y69428D01*
X194742Y69382D01*
X194633Y69319D01*
X194536Y69239D01*
X194452Y69145D01*
X194383Y69040D01*
X194333Y68924D01*
X194300Y68803D01*
X194288Y68677D01*
X194295Y68552D01*
X194321Y68429D01*
X194367Y68311D01*
X194430Y68202D01*
X194509Y68105D01*
X194603Y68021D01*
X194710Y67955D01*
X195218Y67703D01*
X195748Y67503D01*
X196294Y67352D01*
X196852Y67251D01*
X197417Y67200D01*
X197983D01*
X198548Y67251D01*
X199106Y67352D01*
X199652Y67503D01*
X200000Y67634D01*
Y56500D01*
X192533D01*
Y70153D01*
X192627Y70116D01*
X192751Y70090D01*
X192878Y70083D01*
X193004Y70096D01*
X193126Y70128D01*
X193242Y70179D01*
X193348Y70248D01*
X193443Y70332D01*
X193523Y70431D01*
X193586Y70540D01*
X193632Y70658D01*
X193659Y70782D01*
X193666Y70909D01*
X193653Y71035D01*
X193621Y71157D01*
X193567Y71272D01*
X193379Y71650D01*
X193231Y72045D01*
X193118Y72452D01*
X193043Y72868D01*
X193005Y73289D01*
Y73711D01*
X193043Y74132D01*
X193118Y74548D01*
X193231Y74955D01*
X193379Y75350D01*
X193563Y75731D01*
X193616Y75845D01*
X193648Y75966D01*
X193661Y76092D01*
X193654Y76217D01*
X193628Y76340D01*
X193582Y76458D01*
X193519Y76567D01*
X193439Y76664D01*
X193345Y76748D01*
X193240Y76817D01*
X193124Y76867D01*
X193003Y76900D01*
X192877Y76912D01*
X192752Y76905D01*
X192629Y76879D01*
X192533Y76842D01*
Y82500D01*
G37*
G36*
X189197D02*X192533D01*
Y76842D01*
X192511Y76833D01*
X192402Y76770D01*
X192305Y76691D01*
X192221Y76597D01*
X192155Y76490D01*
X191903Y75982D01*
X191703Y75452D01*
X191552Y74906D01*
X191451Y74348D01*
X191400Y73783D01*
Y73217D01*
X191451Y72652D01*
X191552Y72094D01*
X191703Y71548D01*
X191903Y71018D01*
X192149Y70507D01*
X192217Y70400D01*
X192301Y70306D01*
X192400Y70226D01*
X192509Y70162D01*
X192533Y70153D01*
Y56500D01*
X189197D01*
Y70245D01*
X189247Y70294D01*
X189302Y70371D01*
X189577Y70847D01*
X189801Y71350D01*
X189977Y71871D01*
X190104Y72406D01*
X190181Y72951D01*
X190206Y73500D01*
X190181Y74049D01*
X190104Y74594D01*
X189977Y75129D01*
X189801Y75650D01*
X189577Y76153D01*
X189307Y76632D01*
X189251Y76709D01*
X189197Y76762D01*
Y82500D01*
G37*
G36*
X184303D02*X189197D01*
Y76762D01*
X189183Y76776D01*
X189106Y76831D01*
X189020Y76874D01*
X188930Y76902D01*
X188835Y76916D01*
X188740Y76915D01*
X188646Y76900D01*
X188556Y76869D01*
X188471Y76825D01*
X188395Y76769D01*
X188328Y76701D01*
X188273Y76623D01*
X188230Y76538D01*
X188202Y76447D01*
X188188Y76353D01*
X188189Y76258D01*
X188204Y76164D01*
X188235Y76073D01*
X188280Y75990D01*
X188499Y75611D01*
X188677Y75211D01*
X188818Y74797D01*
X188919Y74371D01*
X188980Y73937D01*
X189000Y73500D01*
X188980Y73063D01*
X188919Y72629D01*
X188818Y72203D01*
X188677Y71789D01*
X188499Y71389D01*
X188285Y71007D01*
X188239Y70925D01*
X188209Y70835D01*
X188194Y70742D01*
X188193Y70648D01*
X188207Y70554D01*
X188235Y70464D01*
X188277Y70380D01*
X188332Y70303D01*
X188398Y70235D01*
X188474Y70179D01*
X188558Y70135D01*
X188647Y70105D01*
X188741Y70090D01*
X188835Y70089D01*
X188928Y70103D01*
X189018Y70131D01*
X189103Y70173D01*
X189180Y70228D01*
X189197Y70245D01*
Y56500D01*
X184303D01*
Y67594D01*
X184849Y67619D01*
X185394Y67696D01*
X185929Y67823D01*
X186450Y67999D01*
X186953Y68223D01*
X187432Y68493D01*
X187509Y68549D01*
X187576Y68617D01*
X187631Y68694D01*
X187674Y68780D01*
X187702Y68870D01*
X187716Y68965D01*
X187715Y69060D01*
X187700Y69154D01*
X187669Y69244D01*
X187625Y69329D01*
X187569Y69405D01*
X187501Y69472D01*
X187423Y69527D01*
X187338Y69570D01*
X187247Y69598D01*
X187153Y69612D01*
X187058Y69611D01*
X186964Y69596D01*
X186873Y69565D01*
X186790Y69520D01*
X186411Y69301D01*
X186011Y69123D01*
X185597Y68982D01*
X185171Y68881D01*
X184737Y68820D01*
X184303Y68800D01*
Y78200D01*
X184737Y78180D01*
X185171Y78119D01*
X185597Y78018D01*
X186011Y77877D01*
X186411Y77699D01*
X186793Y77485D01*
X186875Y77439D01*
X186965Y77409D01*
X187058Y77394D01*
X187152Y77393D01*
X187246Y77407D01*
X187336Y77435D01*
X187420Y77477D01*
X187497Y77532D01*
X187565Y77598D01*
X187621Y77674D01*
X187665Y77758D01*
X187695Y77847D01*
X187710Y77941D01*
X187711Y78035D01*
X187697Y78128D01*
X187669Y78218D01*
X187627Y78303D01*
X187572Y78380D01*
X187506Y78447D01*
X187429Y78502D01*
X186953Y78777D01*
X186450Y79001D01*
X185929Y79177D01*
X185394Y79304D01*
X184849Y79381D01*
X184303Y79406D01*
Y82500D01*
G37*
G36*
X179403D02*X184303D01*
Y79406D01*
X184300Y79406D01*
X183751Y79381D01*
X183206Y79304D01*
X182671Y79177D01*
X182150Y79001D01*
X181647Y78777D01*
X181168Y78507D01*
X181091Y78451D01*
X181024Y78383D01*
X180969Y78306D01*
X180926Y78220D01*
X180898Y78130D01*
X180884Y78035D01*
X180885Y77940D01*
X180900Y77846D01*
X180931Y77756D01*
X180975Y77671D01*
X181031Y77595D01*
X181099Y77528D01*
X181177Y77473D01*
X181262Y77430D01*
X181353Y77402D01*
X181447Y77388D01*
X181542Y77389D01*
X181636Y77404D01*
X181727Y77435D01*
X181810Y77480D01*
X182189Y77699D01*
X182589Y77877D01*
X183003Y78018D01*
X183429Y78119D01*
X183863Y78180D01*
X184300Y78200D01*
X184303Y78200D01*
Y68800D01*
X184300Y68800D01*
X183863Y68820D01*
X183429Y68881D01*
X183003Y68982D01*
X182589Y69123D01*
X182189Y69301D01*
X181807Y69515D01*
X181725Y69561D01*
X181635Y69591D01*
X181542Y69606D01*
X181448Y69607D01*
X181354Y69593D01*
X181264Y69565D01*
X181180Y69523D01*
X181103Y69468D01*
X181035Y69402D01*
X180979Y69326D01*
X180935Y69242D01*
X180905Y69153D01*
X180890Y69059D01*
X180889Y68965D01*
X180903Y68872D01*
X180931Y68782D01*
X180973Y68697D01*
X181028Y68620D01*
X181094Y68553D01*
X181171Y68498D01*
X181647Y68223D01*
X182150Y67999D01*
X182671Y67823D01*
X183206Y67696D01*
X183751Y67619D01*
X184300Y67594D01*
X184303Y67594D01*
Y56500D01*
X179403D01*
Y70238D01*
X179417Y70224D01*
X179494Y70169D01*
X179580Y70126D01*
X179670Y70098D01*
X179765Y70084D01*
X179860Y70085D01*
X179954Y70100D01*
X180044Y70131D01*
X180129Y70175D01*
X180205Y70231D01*
X180272Y70299D01*
X180327Y70377D01*
X180370Y70462D01*
X180398Y70553D01*
X180412Y70647D01*
X180411Y70742D01*
X180396Y70836D01*
X180365Y70927D01*
X180320Y71010D01*
X180101Y71389D01*
X179923Y71789D01*
X179782Y72203D01*
X179681Y72629D01*
X179620Y73063D01*
X179600Y73500D01*
X179620Y73937D01*
X179681Y74371D01*
X179782Y74797D01*
X179923Y75211D01*
X180101Y75611D01*
X180315Y75993D01*
X180361Y76075D01*
X180391Y76165D01*
X180406Y76258D01*
X180407Y76352D01*
X180393Y76446D01*
X180365Y76536D01*
X180323Y76620D01*
X180268Y76697D01*
X180202Y76765D01*
X180126Y76821D01*
X180042Y76865D01*
X179953Y76895D01*
X179859Y76910D01*
X179765Y76911D01*
X179672Y76897D01*
X179582Y76869D01*
X179497Y76827D01*
X179420Y76772D01*
X179403Y76755D01*
Y82500D01*
G37*
G36*
X173000D02*X179403D01*
Y76755D01*
X179353Y76706D01*
X179298Y76629D01*
X179023Y76153D01*
X178799Y75650D01*
X178623Y75129D01*
X178496Y74594D01*
X178419Y74049D01*
X178394Y73500D01*
X178419Y72951D01*
X178496Y72406D01*
X178623Y71871D01*
X178799Y71350D01*
X179023Y70847D01*
X179293Y70368D01*
X179349Y70291D01*
X179403Y70238D01*
Y56500D01*
X173000D01*
Y82500D01*
G37*
G36*
X197702D02*X203000D01*
Y76774D01*
X202891Y76838D01*
X202773Y76884D01*
X202649Y76910D01*
X202522Y76917D01*
X202396Y76904D01*
X202274Y76872D01*
X202158Y76821D01*
X202052Y76752D01*
X201957Y76668D01*
X201877Y76569D01*
X201814Y76460D01*
X201768Y76342D01*
X201741Y76218D01*
X201734Y76091D01*
X201747Y75965D01*
X201779Y75843D01*
X201833Y75728D01*
X202021Y75350D01*
X202169Y74955D01*
X202282Y74548D01*
X202357Y74132D01*
X202395Y73711D01*
Y73289D01*
X202357Y72868D01*
X202282Y72452D01*
X202169Y72045D01*
X202021Y71650D01*
X201837Y71269D01*
X201784Y71155D01*
X201752Y71034D01*
X201739Y70908D01*
X201746Y70783D01*
X201772Y70660D01*
X201818Y70542D01*
X201881Y70433D01*
X201961Y70336D01*
X202055Y70252D01*
X202160Y70183D01*
X202276Y70133D01*
X202397Y70100D01*
X202523Y70088D01*
X202648Y70095D01*
X202771Y70121D01*
X202889Y70167D01*
X202998Y70230D01*
X203000Y70232D01*
Y59500D01*
X197702D01*
Y67200D01*
X197983D01*
X198548Y67251D01*
X199106Y67352D01*
X199652Y67503D01*
X200182Y67703D01*
X200693Y67949D01*
X200800Y68017D01*
X200894Y68101D01*
X200974Y68200D01*
X201038Y68309D01*
X201084Y68427D01*
X201110Y68551D01*
X201117Y68678D01*
X201104Y68804D01*
X201072Y68926D01*
X201021Y69042D01*
X200952Y69148D01*
X200868Y69243D01*
X200769Y69323D01*
X200660Y69386D01*
X200542Y69432D01*
X200418Y69459D01*
X200291Y69466D01*
X200165Y69453D01*
X200043Y69421D01*
X199928Y69367D01*
X199550Y69179D01*
X199155Y69031D01*
X198748Y68918D01*
X198332Y68843D01*
X197911Y68805D01*
X197702D01*
Y78195D01*
X197911D01*
X198332Y78157D01*
X198748Y78082D01*
X199155Y77969D01*
X199550Y77821D01*
X199931Y77637D01*
X200045Y77584D01*
X200166Y77552D01*
X200292Y77539D01*
X200417Y77546D01*
X200540Y77572D01*
X200658Y77618D01*
X200767Y77681D01*
X200864Y77761D01*
X200948Y77855D01*
X201017Y77960D01*
X201067Y78076D01*
X201100Y78197D01*
X201112Y78323D01*
X201105Y78448D01*
X201079Y78571D01*
X201033Y78689D01*
X200970Y78798D01*
X200891Y78895D01*
X200797Y78979D01*
X200690Y79045D01*
X200182Y79297D01*
X199652Y79497D01*
X199106Y79648D01*
X198548Y79749D01*
X197983Y79800D01*
X197702D01*
Y82500D01*
G37*
G36*
X192533D02*X197702D01*
Y79800D01*
X197417D01*
X196852Y79749D01*
X196294Y79648D01*
X195748Y79497D01*
X195218Y79297D01*
X194707Y79051D01*
X194600Y78983D01*
X194506Y78899D01*
X194426Y78800D01*
X194362Y78691D01*
X194316Y78573D01*
X194290Y78449D01*
X194283Y78322D01*
X194296Y78196D01*
X194328Y78074D01*
X194379Y77958D01*
X194448Y77852D01*
X194532Y77757D01*
X194631Y77677D01*
X194740Y77614D01*
X194858Y77568D01*
X194982Y77541D01*
X195109Y77534D01*
X195235Y77547D01*
X195357Y77579D01*
X195472Y77633D01*
X195850Y77821D01*
X196245Y77969D01*
X196652Y78082D01*
X197068Y78157D01*
X197489Y78195D01*
X197702D01*
Y68805D01*
X197489D01*
X197068Y68843D01*
X196652Y68918D01*
X196245Y69031D01*
X195850Y69179D01*
X195469Y69363D01*
X195355Y69416D01*
X195234Y69448D01*
X195108Y69461D01*
X194983Y69454D01*
X194860Y69428D01*
X194742Y69382D01*
X194633Y69319D01*
X194536Y69239D01*
X194452Y69145D01*
X194383Y69040D01*
X194333Y68924D01*
X194300Y68803D01*
X194288Y68677D01*
X194295Y68552D01*
X194321Y68429D01*
X194367Y68311D01*
X194430Y68202D01*
X194509Y68105D01*
X194603Y68021D01*
X194710Y67955D01*
X195218Y67703D01*
X195748Y67503D01*
X196294Y67352D01*
X196852Y67251D01*
X197417Y67200D01*
X197702D01*
Y59500D01*
X192533D01*
Y70153D01*
X192627Y70116D01*
X192751Y70090D01*
X192878Y70083D01*
X193004Y70096D01*
X193126Y70128D01*
X193242Y70179D01*
X193348Y70248D01*
X193443Y70332D01*
X193523Y70431D01*
X193586Y70540D01*
X193632Y70658D01*
X193659Y70782D01*
X193666Y70909D01*
X193653Y71035D01*
X193621Y71157D01*
X193567Y71272D01*
X193379Y71650D01*
X193231Y72045D01*
X193118Y72452D01*
X193043Y72868D01*
X193005Y73289D01*
Y73711D01*
X193043Y74132D01*
X193118Y74548D01*
X193231Y74955D01*
X193379Y75350D01*
X193563Y75731D01*
X193616Y75845D01*
X193648Y75966D01*
X193661Y76092D01*
X193654Y76217D01*
X193628Y76340D01*
X193582Y76458D01*
X193519Y76567D01*
X193439Y76664D01*
X193345Y76748D01*
X193240Y76817D01*
X193124Y76867D01*
X193003Y76900D01*
X192877Y76912D01*
X192752Y76905D01*
X192629Y76879D01*
X192533Y76842D01*
Y82500D01*
G37*
G36*
X189197D02*X192533D01*
Y76842D01*
X192511Y76833D01*
X192402Y76770D01*
X192305Y76691D01*
X192221Y76597D01*
X192155Y76490D01*
X191903Y75982D01*
X191703Y75452D01*
X191552Y74906D01*
X191451Y74348D01*
X191400Y73783D01*
Y73217D01*
X191451Y72652D01*
X191552Y72094D01*
X191703Y71548D01*
X191903Y71018D01*
X192149Y70507D01*
X192217Y70400D01*
X192301Y70306D01*
X192400Y70226D01*
X192509Y70162D01*
X192533Y70153D01*
Y59500D01*
X189197D01*
Y70245D01*
X189247Y70294D01*
X189302Y70371D01*
X189577Y70847D01*
X189801Y71350D01*
X189977Y71871D01*
X190104Y72406D01*
X190181Y72951D01*
X190206Y73500D01*
X190181Y74049D01*
X190104Y74594D01*
X189977Y75129D01*
X189801Y75650D01*
X189577Y76153D01*
X189307Y76632D01*
X189251Y76709D01*
X189197Y76762D01*
Y82500D01*
G37*
G36*
X184303D02*X189197D01*
Y76762D01*
X189183Y76776D01*
X189106Y76831D01*
X189020Y76874D01*
X188930Y76902D01*
X188835Y76916D01*
X188740Y76915D01*
X188646Y76900D01*
X188556Y76869D01*
X188471Y76825D01*
X188395Y76769D01*
X188328Y76701D01*
X188273Y76623D01*
X188230Y76538D01*
X188202Y76447D01*
X188188Y76353D01*
X188189Y76258D01*
X188204Y76164D01*
X188235Y76073D01*
X188280Y75990D01*
X188499Y75611D01*
X188677Y75211D01*
X188818Y74797D01*
X188919Y74371D01*
X188980Y73937D01*
X189000Y73500D01*
X188980Y73063D01*
X188919Y72629D01*
X188818Y72203D01*
X188677Y71789D01*
X188499Y71389D01*
X188285Y71007D01*
X188239Y70925D01*
X188209Y70835D01*
X188194Y70742D01*
X188193Y70648D01*
X188207Y70554D01*
X188235Y70464D01*
X188277Y70380D01*
X188332Y70303D01*
X188398Y70235D01*
X188474Y70179D01*
X188558Y70135D01*
X188647Y70105D01*
X188741Y70090D01*
X188835Y70089D01*
X188928Y70103D01*
X189018Y70131D01*
X189103Y70173D01*
X189180Y70228D01*
X189197Y70245D01*
Y59500D01*
X184303D01*
Y67594D01*
X184849Y67619D01*
X185394Y67696D01*
X185929Y67823D01*
X186450Y67999D01*
X186953Y68223D01*
X187432Y68493D01*
X187509Y68549D01*
X187576Y68617D01*
X187631Y68694D01*
X187674Y68780D01*
X187702Y68870D01*
X187716Y68965D01*
X187715Y69060D01*
X187700Y69154D01*
X187669Y69244D01*
X187625Y69329D01*
X187569Y69405D01*
X187501Y69472D01*
X187423Y69527D01*
X187338Y69570D01*
X187247Y69598D01*
X187153Y69612D01*
X187058Y69611D01*
X186964Y69596D01*
X186873Y69565D01*
X186790Y69520D01*
X186411Y69301D01*
X186011Y69123D01*
X185597Y68982D01*
X185171Y68881D01*
X184737Y68820D01*
X184303Y68800D01*
Y78200D01*
X184737Y78180D01*
X185171Y78119D01*
X185597Y78018D01*
X186011Y77877D01*
X186411Y77699D01*
X186793Y77485D01*
X186875Y77439D01*
X186965Y77409D01*
X187058Y77394D01*
X187152Y77393D01*
X187246Y77407D01*
X187336Y77435D01*
X187420Y77477D01*
X187497Y77532D01*
X187565Y77598D01*
X187621Y77674D01*
X187665Y77758D01*
X187695Y77847D01*
X187710Y77941D01*
X187711Y78035D01*
X187697Y78128D01*
X187669Y78218D01*
X187627Y78303D01*
X187572Y78380D01*
X187506Y78447D01*
X187429Y78502D01*
X186953Y78777D01*
X186450Y79001D01*
X185929Y79177D01*
X185394Y79304D01*
X184849Y79381D01*
X184303Y79406D01*
Y82500D01*
G37*
G36*
X178500Y59500D02*Y72388D01*
X178623Y71871D01*
X178799Y71350D01*
X179023Y70847D01*
X179293Y70368D01*
X179349Y70291D01*
X179417Y70224D01*
X179494Y70169D01*
X179580Y70126D01*
X179670Y70098D01*
X179765Y70084D01*
X179860Y70085D01*
X179954Y70100D01*
X180044Y70131D01*
X180129Y70175D01*
X180205Y70231D01*
X180272Y70299D01*
X180327Y70377D01*
X180370Y70462D01*
X180398Y70553D01*
X180412Y70647D01*
X180411Y70742D01*
X180396Y70836D01*
X180365Y70927D01*
X180320Y71010D01*
X180101Y71389D01*
X179923Y71789D01*
X179782Y72203D01*
X179681Y72629D01*
X179620Y73063D01*
X179600Y73500D01*
X179620Y73937D01*
X179681Y74371D01*
X179782Y74797D01*
X179923Y75211D01*
X180101Y75611D01*
X180315Y75993D01*
X180361Y76075D01*
X180391Y76165D01*
X180406Y76258D01*
X180407Y76352D01*
X180393Y76446D01*
X180365Y76536D01*
X180323Y76620D01*
X180268Y76697D01*
X180202Y76765D01*
X180126Y76821D01*
X180042Y76865D01*
X179953Y76895D01*
X179859Y76910D01*
X179765Y76911D01*
X179672Y76897D01*
X179582Y76869D01*
X179497Y76827D01*
X179420Y76772D01*
X179353Y76706D01*
X179298Y76629D01*
X179023Y76153D01*
X178799Y75650D01*
X178623Y75129D01*
X178500Y74612D01*
Y82500D01*
X184303D01*
Y79406D01*
X184300Y79406D01*
X183751Y79381D01*
X183206Y79304D01*
X182671Y79177D01*
X182150Y79001D01*
X181647Y78777D01*
X181168Y78507D01*
X181091Y78451D01*
X181024Y78383D01*
X180969Y78306D01*
X180926Y78220D01*
X180898Y78130D01*
X180884Y78035D01*
X180885Y77940D01*
X180900Y77846D01*
X180931Y77756D01*
X180975Y77671D01*
X181031Y77595D01*
X181099Y77528D01*
X181177Y77473D01*
X181262Y77430D01*
X181353Y77402D01*
X181447Y77388D01*
X181542Y77389D01*
X181636Y77404D01*
X181727Y77435D01*
X181810Y77480D01*
X182189Y77699D01*
X182589Y77877D01*
X183003Y78018D01*
X183429Y78119D01*
X183863Y78180D01*
X184300Y78200D01*
X184303Y78200D01*
Y68800D01*
X184300Y68800D01*
X183863Y68820D01*
X183429Y68881D01*
X183003Y68982D01*
X182589Y69123D01*
X182189Y69301D01*
X181807Y69515D01*
X181725Y69561D01*
X181635Y69591D01*
X181542Y69606D01*
X181448Y69607D01*
X181354Y69593D01*
X181264Y69565D01*
X181180Y69523D01*
X181103Y69468D01*
X181035Y69402D01*
X180979Y69326D01*
X180935Y69242D01*
X180905Y69153D01*
X180890Y69059D01*
X180889Y68965D01*
X180903Y68872D01*
X180931Y68782D01*
X180973Y68697D01*
X181028Y68620D01*
X181094Y68553D01*
X181171Y68498D01*
X181647Y68223D01*
X182150Y67999D01*
X182671Y67823D01*
X183206Y67696D01*
X183751Y67619D01*
X184300Y67594D01*
X184303Y67594D01*
Y59500D01*
X178500D01*
G37*
G36*
X232000Y64500D02*X239500D01*
Y1500D01*
X232000D01*
Y8405D01*
X236173Y8410D01*
X236341Y8451D01*
X236501Y8517D01*
X236649Y8607D01*
X236780Y8720D01*
X236893Y8851D01*
X236983Y8999D01*
X237049Y9159D01*
X237090Y9327D01*
X237100Y9500D01*
X237090Y17673D01*
X237049Y17841D01*
X236983Y18001D01*
X236893Y18149D01*
X236780Y18280D01*
X236649Y18393D01*
X236501Y18483D01*
X236341Y18549D01*
X236173Y18590D01*
X236000Y18600D01*
X232000Y18595D01*
Y64500D01*
G37*
G36*
X167492D02*X232000D01*
Y18595D01*
X227827Y18590D01*
X227659Y18549D01*
X227499Y18483D01*
X227351Y18393D01*
X227220Y18280D01*
X227107Y18149D01*
X227017Y18001D01*
X226951Y17841D01*
X226910Y17673D01*
X226900Y17500D01*
X226910Y9327D01*
X226951Y9159D01*
X227017Y8999D01*
X227107Y8851D01*
X227220Y8720D01*
X227351Y8607D01*
X227499Y8517D01*
X227659Y8451D01*
X227827Y8410D01*
X228000Y8400D01*
X232000Y8405D01*
Y1500D01*
X167492D01*
Y8385D01*
X167500Y8384D01*
X168300Y8447D01*
X169081Y8635D01*
X169822Y8942D01*
X170507Y9361D01*
X171117Y9883D01*
X171639Y10493D01*
X172058Y11178D01*
X172365Y11919D01*
X172553Y12700D01*
X172600Y13500D01*
X172553Y14300D01*
X172365Y15081D01*
X172058Y15822D01*
X171639Y16507D01*
X171117Y17117D01*
X170507Y17639D01*
X169822Y18058D01*
X169081Y18365D01*
X168300Y18553D01*
X167500Y18616D01*
X167492Y18615D01*
Y64500D01*
G37*
G36*
X152050D02*X167492D01*
Y18615D01*
X166700Y18553D01*
X165919Y18365D01*
X165178Y18058D01*
X164493Y17639D01*
X163883Y17117D01*
X163361Y16507D01*
X162942Y15822D01*
X162635Y15081D01*
X162447Y14300D01*
X162384Y13500D01*
X162447Y12700D01*
X162635Y11919D01*
X162942Y11178D01*
X163361Y10493D01*
X163883Y9883D01*
X164493Y9361D01*
X165178Y8942D01*
X165919Y8635D01*
X166700Y8447D01*
X167492Y8385D01*
Y1500D01*
X152050D01*
Y10048D01*
X152136Y10055D01*
X152220Y10075D01*
X152300Y10108D01*
X152374Y10154D01*
X152440Y10210D01*
X152496Y10276D01*
X152542Y10350D01*
X152575Y10430D01*
X152595Y10514D01*
X152600Y10600D01*
Y16400D01*
X152595Y16486D01*
X152575Y16570D01*
X152542Y16650D01*
X152496Y16724D01*
X152440Y16790D01*
X152374Y16846D01*
X152300Y16892D01*
X152220Y16925D01*
X152136Y16945D01*
X152050Y16952D01*
Y64500D01*
G37*
G36*
X147500D02*X152050D01*
Y16952D01*
X151964Y16945D01*
X151880Y16925D01*
X151800Y16892D01*
X151726Y16846D01*
X151660Y16790D01*
X151604Y16724D01*
X151558Y16650D01*
X151525Y16570D01*
X151505Y16486D01*
X151500Y16400D01*
Y10600D01*
X151505Y10514D01*
X151525Y10430D01*
X151558Y10350D01*
X151604Y10276D01*
X151660Y10210D01*
X151726Y10154D01*
X151800Y10108D01*
X151880Y10075D01*
X151964Y10055D01*
X152050Y10048D01*
Y1500D01*
X147500D01*
Y8400D01*
X150400D01*
X150486Y8405D01*
X150570Y8425D01*
X150650Y8458D01*
X150724Y8504D01*
X150790Y8560D01*
X150846Y8626D01*
X150892Y8700D01*
X150925Y8780D01*
X150945Y8864D01*
X150952Y8950D01*
X150945Y9036D01*
X150925Y9120D01*
X150892Y9200D01*
X150846Y9274D01*
X150790Y9340D01*
X150724Y9396D01*
X150650Y9442D01*
X150570Y9475D01*
X150486Y9495D01*
X150400Y9500D01*
X147500D01*
Y17500D01*
X150400D01*
X150486Y17505D01*
X150570Y17525D01*
X150650Y17558D01*
X150724Y17604D01*
X150790Y17660D01*
X150846Y17726D01*
X150892Y17800D01*
X150925Y17880D01*
X150945Y17964D01*
X150952Y18050D01*
X150945Y18136D01*
X150925Y18220D01*
X150892Y18300D01*
X150846Y18374D01*
X150790Y18440D01*
X150724Y18496D01*
X150650Y18542D01*
X150570Y18575D01*
X150486Y18595D01*
X150400Y18600D01*
X147500D01*
Y64500D01*
G37*
G36*
X167492D02*X190000D01*
Y1500D01*
X167492D01*
Y8385D01*
X167500Y8384D01*
X168300Y8447D01*
X169081Y8635D01*
X169822Y8942D01*
X170507Y9361D01*
X171117Y9883D01*
X171639Y10493D01*
X172058Y11178D01*
X172365Y11919D01*
X172553Y12700D01*
X172600Y13500D01*
X172553Y14300D01*
X172365Y15081D01*
X172058Y15822D01*
X171639Y16507D01*
X171117Y17117D01*
X170507Y17639D01*
X169822Y18058D01*
X169081Y18365D01*
X168300Y18553D01*
X167500Y18616D01*
X167492Y18615D01*
Y64500D01*
G37*
G36*
X152050D02*X167492D01*
Y18615D01*
X166700Y18553D01*
X165919Y18365D01*
X165178Y18058D01*
X164493Y17639D01*
X163883Y17117D01*
X163361Y16507D01*
X162942Y15822D01*
X162635Y15081D01*
X162447Y14300D01*
X162384Y13500D01*
X162447Y12700D01*
X162635Y11919D01*
X162942Y11178D01*
X163361Y10493D01*
X163883Y9883D01*
X164493Y9361D01*
X165178Y8942D01*
X165919Y8635D01*
X166700Y8447D01*
X167492Y8385D01*
Y1500D01*
X152050D01*
Y10048D01*
X152136Y10055D01*
X152220Y10075D01*
X152300Y10108D01*
X152374Y10154D01*
X152440Y10210D01*
X152496Y10276D01*
X152542Y10350D01*
X152575Y10430D01*
X152595Y10514D01*
X152600Y10600D01*
Y16400D01*
X152595Y16486D01*
X152575Y16570D01*
X152542Y16650D01*
X152496Y16724D01*
X152440Y16790D01*
X152374Y16846D01*
X152300Y16892D01*
X152220Y16925D01*
X152136Y16945D01*
X152050Y16952D01*
Y64500D01*
G37*
G36*
X147500D02*X152050D01*
Y16952D01*
X151964Y16945D01*
X151880Y16925D01*
X151800Y16892D01*
X151726Y16846D01*
X151660Y16790D01*
X151604Y16724D01*
X151558Y16650D01*
X151525Y16570D01*
X151505Y16486D01*
X151500Y16400D01*
Y10600D01*
X151505Y10514D01*
X151525Y10430D01*
X151558Y10350D01*
X151604Y10276D01*
X151660Y10210D01*
X151726Y10154D01*
X151800Y10108D01*
X151880Y10075D01*
X151964Y10055D01*
X152050Y10048D01*
Y1500D01*
X147500D01*
Y8400D01*
X150400D01*
X150486Y8405D01*
X150570Y8425D01*
X150650Y8458D01*
X150724Y8504D01*
X150790Y8560D01*
X150846Y8626D01*
X150892Y8700D01*
X150925Y8780D01*
X150945Y8864D01*
X150952Y8950D01*
X150945Y9036D01*
X150925Y9120D01*
X150892Y9200D01*
X150846Y9274D01*
X150790Y9340D01*
X150724Y9396D01*
X150650Y9442D01*
X150570Y9475D01*
X150486Y9495D01*
X150400Y9500D01*
X147500D01*
Y17500D01*
X150400D01*
X150486Y17505D01*
X150570Y17525D01*
X150650Y17558D01*
X150724Y17604D01*
X150790Y17660D01*
X150846Y17726D01*
X150892Y17800D01*
X150925Y17880D01*
X150945Y17964D01*
X150952Y18050D01*
X150945Y18136D01*
X150925Y18220D01*
X150892Y18300D01*
X150846Y18374D01*
X150790Y18440D01*
X150724Y18496D01*
X150650Y18542D01*
X150570Y18575D01*
X150486Y18595D01*
X150400Y18600D01*
X147500D01*
Y64500D01*
G37*
G36*
X142950D02*X147500D01*
Y18600D01*
X144600D01*
X144514Y18595D01*
X144430Y18575D01*
X144350Y18542D01*
X144276Y18496D01*
X144210Y18440D01*
X144154Y18374D01*
X144108Y18300D01*
X144075Y18220D01*
X144055Y18136D01*
X144048Y18050D01*
X144055Y17964D01*
X144075Y17880D01*
X144108Y17800D01*
X144154Y17726D01*
X144210Y17660D01*
X144276Y17604D01*
X144350Y17558D01*
X144430Y17525D01*
X144514Y17505D01*
X144600Y17500D01*
X147500D01*
Y9500D01*
X144600D01*
X144514Y9495D01*
X144430Y9475D01*
X144350Y9442D01*
X144276Y9396D01*
X144210Y9340D01*
X144154Y9274D01*
X144108Y9200D01*
X144075Y9120D01*
X144055Y9036D01*
X144048Y8950D01*
X144055Y8864D01*
X144075Y8780D01*
X144108Y8700D01*
X144154Y8626D01*
X144210Y8560D01*
X144276Y8504D01*
X144350Y8458D01*
X144430Y8425D01*
X144514Y8405D01*
X144600Y8400D01*
X147500D01*
Y1500D01*
X142950D01*
Y10048D01*
X143036Y10055D01*
X143120Y10075D01*
X143200Y10108D01*
X143274Y10154D01*
X143340Y10210D01*
X143396Y10276D01*
X143442Y10350D01*
X143475Y10430D01*
X143495Y10514D01*
X143500Y10600D01*
Y16400D01*
X143495Y16486D01*
X143475Y16570D01*
X143442Y16650D01*
X143396Y16724D01*
X143340Y16790D01*
X143274Y16846D01*
X143200Y16892D01*
X143120Y16925D01*
X143036Y16945D01*
X142950Y16952D01*
Y64500D01*
G37*
G36*
X131722D02*X142950D01*
Y16952D01*
X142864Y16945D01*
X142780Y16925D01*
X142700Y16892D01*
X142626Y16846D01*
X142560Y16790D01*
X142504Y16724D01*
X142458Y16650D01*
X142425Y16570D01*
X142405Y16486D01*
X142400Y16400D01*
Y10600D01*
X142405Y10514D01*
X142425Y10430D01*
X142458Y10350D01*
X142504Y10276D01*
X142560Y10210D01*
X142626Y10154D01*
X142700Y10108D01*
X142780Y10075D01*
X142864Y10055D01*
X142950Y10048D01*
Y1500D01*
X131722D01*
Y10705D01*
X131755Y10729D01*
X131816Y10791D01*
X131865Y10862D01*
X132090Y11265D01*
X132274Y11690D01*
X132418Y12129D01*
X132522Y12580D01*
X132584Y13038D01*
X132605Y13500D01*
X132584Y13962D01*
X132522Y14420D01*
X132418Y14871D01*
X132274Y15310D01*
X132090Y15735D01*
X131869Y16141D01*
X131819Y16212D01*
X131758Y16274D01*
X131722Y16300D01*
Y64500D01*
G37*
G36*
X127502D02*X131722D01*
Y16300D01*
X131687Y16326D01*
X131610Y16366D01*
X131527Y16393D01*
X131441Y16407D01*
X131354Y16408D01*
X131268Y16395D01*
X131184Y16368D01*
X131107Y16329D01*
X131036Y16278D01*
X130974Y16217D01*
X130922Y16147D01*
X130882Y16069D01*
X130854Y15987D01*
X130840Y15901D01*
X130840Y15813D01*
X130853Y15727D01*
X130879Y15644D01*
X130920Y15567D01*
X131096Y15251D01*
X131240Y14918D01*
X131353Y14574D01*
X131434Y14221D01*
X131484Y13862D01*
X131500Y13500D01*
X131484Y13138D01*
X131434Y12779D01*
X131353Y12426D01*
X131240Y12082D01*
X131096Y11749D01*
X130923Y11431D01*
X130883Y11354D01*
X130857Y11272D01*
X130844Y11186D01*
X130844Y11100D01*
X130858Y11014D01*
X130886Y10932D01*
X130925Y10855D01*
X130977Y10786D01*
X131038Y10725D01*
X131109Y10674D01*
X131186Y10636D01*
X131269Y10609D01*
X131354Y10596D01*
X131441Y10597D01*
X131526Y10611D01*
X131608Y10638D01*
X131685Y10678D01*
X131722Y10705D01*
Y1500D01*
X127502D01*
Y8395D01*
X127962Y8416D01*
X128420Y8478D01*
X128871Y8582D01*
X129310Y8726D01*
X129735Y8910D01*
X130141Y9131D01*
X130212Y9181D01*
X130274Y9242D01*
X130326Y9313D01*
X130366Y9390D01*
X130393Y9473D01*
X130407Y9559D01*
X130408Y9646D01*
X130395Y9732D01*
X130368Y9816D01*
X130329Y9893D01*
X130278Y9964D01*
X130217Y10026D01*
X130147Y10078D01*
X130069Y10118D01*
X129987Y10146D01*
X129901Y10160D01*
X129813Y10160D01*
X129727Y10147D01*
X129644Y10121D01*
X129567Y10080D01*
X129251Y9904D01*
X128918Y9760D01*
X128574Y9647D01*
X128221Y9566D01*
X127862Y9516D01*
X127502Y9500D01*
Y17500D01*
X127862Y17484D01*
X128221Y17435D01*
X128574Y17353D01*
X128918Y17240D01*
X129251Y17096D01*
X129569Y16923D01*
X129646Y16883D01*
X129728Y16857D01*
X129814Y16844D01*
X129900Y16844D01*
X129986Y16858D01*
X130068Y16886D01*
X130145Y16925D01*
X130214Y16977D01*
X130275Y17038D01*
X130326Y17109D01*
X130364Y17186D01*
X130391Y17269D01*
X130404Y17354D01*
X130403Y17441D01*
X130389Y17526D01*
X130362Y17608D01*
X130322Y17685D01*
X130271Y17755D01*
X130209Y17816D01*
X130138Y17865D01*
X129735Y18090D01*
X129310Y18274D01*
X128871Y18418D01*
X128420Y18522D01*
X127962Y18584D01*
X127502Y18605D01*
Y64500D01*
G37*
G36*
X123278D02*X127502D01*
Y18605D01*
X127500Y18605D01*
X127038Y18584D01*
X126580Y18522D01*
X126129Y18418D01*
X125690Y18274D01*
X125265Y18090D01*
X124859Y17869D01*
X124788Y17819D01*
X124726Y17758D01*
X124674Y17687D01*
X124634Y17610D01*
X124607Y17527D01*
X124593Y17441D01*
X124592Y17354D01*
X124605Y17268D01*
X124632Y17184D01*
X124671Y17107D01*
X124722Y17036D01*
X124783Y16974D01*
X124853Y16922D01*
X124931Y16882D01*
X125013Y16854D01*
X125099Y16840D01*
X125187Y16840D01*
X125273Y16853D01*
X125356Y16879D01*
X125433Y16920D01*
X125749Y17096D01*
X126082Y17240D01*
X126426Y17353D01*
X126779Y17435D01*
X127138Y17484D01*
X127500Y17500D01*
X127502Y17500D01*
Y9500D01*
X127500Y9500D01*
X127138Y9516D01*
X126779Y9566D01*
X126426Y9647D01*
X126082Y9760D01*
X125749Y9904D01*
X125431Y10077D01*
X125354Y10117D01*
X125272Y10143D01*
X125186Y10156D01*
X125100Y10156D01*
X125014Y10142D01*
X124932Y10114D01*
X124855Y10075D01*
X124786Y10023D01*
X124725Y9962D01*
X124674Y9891D01*
X124636Y9814D01*
X124609Y9731D01*
X124596Y9646D01*
X124597Y9559D01*
X124611Y9474D01*
X124638Y9392D01*
X124678Y9315D01*
X124729Y9245D01*
X124791Y9184D01*
X124862Y9135D01*
X125265Y8910D01*
X125690Y8726D01*
X126129Y8582D01*
X126580Y8478D01*
X127038Y8416D01*
X127500Y8395D01*
X127502Y8395D01*
Y1500D01*
X123278D01*
Y10700D01*
X123313Y10674D01*
X123390Y10634D01*
X123473Y10607D01*
X123559Y10593D01*
X123646Y10592D01*
X123732Y10605D01*
X123816Y10632D01*
X123893Y10671D01*
X123964Y10722D01*
X124026Y10783D01*
X124078Y10853D01*
X124118Y10931D01*
X124146Y11013D01*
X124160Y11099D01*
X124160Y11187D01*
X124147Y11273D01*
X124121Y11356D01*
X124080Y11433D01*
X123904Y11749D01*
X123760Y12082D01*
X123647Y12426D01*
X123565Y12779D01*
X123516Y13138D01*
X123500Y13500D01*
X123516Y13862D01*
X123565Y14221D01*
X123647Y14574D01*
X123760Y14918D01*
X123904Y15251D01*
X124077Y15569D01*
X124117Y15646D01*
X124143Y15728D01*
X124156Y15814D01*
X124156Y15900D01*
X124142Y15986D01*
X124114Y16068D01*
X124075Y16145D01*
X124023Y16214D01*
X123962Y16275D01*
X123891Y16326D01*
X123814Y16364D01*
X123731Y16391D01*
X123646Y16404D01*
X123559Y16403D01*
X123474Y16389D01*
X123392Y16362D01*
X123315Y16322D01*
X123278Y16295D01*
Y64500D01*
G37*
G36*
X107500D02*X123278D01*
Y16295D01*
X123245Y16271D01*
X123184Y16209D01*
X123135Y16138D01*
X122910Y15735D01*
X122726Y15310D01*
X122582Y14871D01*
X122478Y14420D01*
X122416Y13962D01*
X122395Y13500D01*
X122416Y13038D01*
X122478Y12580D01*
X122582Y12129D01*
X122726Y11690D01*
X122910Y11265D01*
X123131Y10859D01*
X123181Y10788D01*
X123242Y10726D01*
X123278Y10700D01*
Y1500D01*
X107500D01*
Y8405D01*
X111673Y8410D01*
X111841Y8451D01*
X112001Y8517D01*
X112149Y8607D01*
X112280Y8720D01*
X112393Y8851D01*
X112483Y8999D01*
X112549Y9159D01*
X112590Y9327D01*
X112600Y9500D01*
X112590Y17673D01*
X112549Y17841D01*
X112483Y18001D01*
X112393Y18149D01*
X112280Y18280D01*
X112149Y18393D01*
X112001Y18483D01*
X111841Y18549D01*
X111673Y18590D01*
X111500Y18600D01*
X107500Y18595D01*
Y64500D01*
G37*
G36*
X98000D02*X107500D01*
Y18595D01*
X103327Y18590D01*
X103159Y18549D01*
X102999Y18483D01*
X102851Y18393D01*
X102720Y18280D01*
X102607Y18149D01*
X102517Y18001D01*
X102451Y17841D01*
X102410Y17673D01*
X102400Y17500D01*
X102410Y9327D01*
X102451Y9159D01*
X102517Y8999D01*
X102607Y8851D01*
X102720Y8720D01*
X102851Y8607D01*
X102999Y8517D01*
X103159Y8451D01*
X103327Y8410D01*
X103500Y8400D01*
X107500Y8405D01*
Y1500D01*
X98000D01*
Y64500D01*
G37*
G36*
X87492D02*X110000D01*
Y18598D01*
X103327Y18590D01*
X103159Y18549D01*
X102999Y18483D01*
X102851Y18393D01*
X102720Y18280D01*
X102607Y18149D01*
X102517Y18001D01*
X102451Y17841D01*
X102410Y17673D01*
X102400Y17500D01*
X102410Y9327D01*
X102451Y9159D01*
X102517Y8999D01*
X102607Y8851D01*
X102720Y8720D01*
X102851Y8607D01*
X102999Y8517D01*
X103159Y8451D01*
X103327Y8410D01*
X103500Y8400D01*
X110000Y8408D01*
Y1500D01*
X87492D01*
Y8485D01*
X87500Y8485D01*
X88285Y8546D01*
X89050Y8730D01*
X89777Y9031D01*
X90448Y9442D01*
X91046Y9954D01*
X91558Y10552D01*
X91969Y11223D01*
X92270Y11950D01*
X92454Y12715D01*
X92500Y13500D01*
X92454Y14285D01*
X92270Y15050D01*
X91969Y15777D01*
X91558Y16448D01*
X91046Y17046D01*
X90448Y17558D01*
X89777Y17969D01*
X89050Y18270D01*
X88285Y18454D01*
X87500Y18515D01*
X87492Y18515D01*
Y64500D01*
G37*
G36*
X72000D02*X87492D01*
Y18515D01*
X86715Y18454D01*
X85950Y18270D01*
X85223Y17969D01*
X84552Y17558D01*
X83954Y17046D01*
X83442Y16448D01*
X83031Y15777D01*
X82730Y15050D01*
X82546Y14285D01*
X82485Y13500D01*
X82546Y12715D01*
X82730Y11950D01*
X83031Y11223D01*
X83442Y10552D01*
X83954Y9954D01*
X84552Y9442D01*
X85223Y9031D01*
X85950Y8730D01*
X86715Y8546D01*
X87492Y8485D01*
Y1500D01*
X72000D01*
Y9998D01*
X72078Y10005D01*
X72155Y10023D01*
X72228Y10053D01*
X72295Y10094D01*
X72355Y10145D01*
X72406Y10205D01*
X72447Y10272D01*
X72477Y10345D01*
X72495Y10422D01*
X72500Y10500D01*
Y16500D01*
X72495Y16578D01*
X72477Y16655D01*
X72447Y16728D01*
X72406Y16795D01*
X72355Y16855D01*
X72295Y16906D01*
X72228Y16947D01*
X72155Y16977D01*
X72078Y16995D01*
X72000Y17002D01*
Y64500D01*
G37*
G36*
X67500D02*X72000D01*
Y17002D01*
X71922Y16995D01*
X71845Y16977D01*
X71772Y16947D01*
X71705Y16906D01*
X71645Y16855D01*
X71594Y16795D01*
X71553Y16728D01*
X71523Y16655D01*
X71505Y16578D01*
X71500Y16500D01*
Y10500D01*
X71505Y10422D01*
X71523Y10345D01*
X71553Y10272D01*
X71594Y10205D01*
X71645Y10145D01*
X71705Y10094D01*
X71772Y10053D01*
X71845Y10023D01*
X71922Y10005D01*
X72000Y9998D01*
Y1500D01*
X67500D01*
Y8500D01*
X70500D01*
X70578Y8505D01*
X70655Y8523D01*
X70728Y8553D01*
X70795Y8594D01*
X70855Y8645D01*
X70906Y8705D01*
X70947Y8772D01*
X70977Y8845D01*
X70995Y8922D01*
X71002Y9000D01*
X70995Y9078D01*
X70977Y9155D01*
X70947Y9228D01*
X70906Y9295D01*
X70855Y9355D01*
X70795Y9406D01*
X70728Y9447D01*
X70655Y9477D01*
X70578Y9495D01*
X70500Y9500D01*
X67500D01*
Y17500D01*
X70500D01*
X70578Y17505D01*
X70655Y17523D01*
X70728Y17553D01*
X70795Y17594D01*
X70855Y17645D01*
X70906Y17705D01*
X70947Y17772D01*
X70977Y17845D01*
X70995Y17922D01*
X71002Y18000D01*
X70995Y18078D01*
X70977Y18155D01*
X70947Y18228D01*
X70906Y18295D01*
X70855Y18355D01*
X70795Y18406D01*
X70728Y18447D01*
X70655Y18477D01*
X70578Y18495D01*
X70500Y18500D01*
X67500D01*
Y64500D01*
G37*
G36*
X63000D02*X67500D01*
Y18500D01*
X64500D01*
X64422Y18495D01*
X64345Y18477D01*
X64272Y18447D01*
X64205Y18406D01*
X64145Y18355D01*
X64094Y18295D01*
X64053Y18228D01*
X64023Y18155D01*
X64005Y18078D01*
X63998Y18000D01*
X64005Y17922D01*
X64023Y17845D01*
X64053Y17772D01*
X64094Y17705D01*
X64145Y17645D01*
X64205Y17594D01*
X64272Y17553D01*
X64345Y17523D01*
X64422Y17505D01*
X64500Y17500D01*
X67500D01*
Y9500D01*
X64500D01*
X64422Y9495D01*
X64345Y9477D01*
X64272Y9447D01*
X64205Y9406D01*
X64145Y9355D01*
X64094Y9295D01*
X64053Y9228D01*
X64023Y9155D01*
X64005Y9078D01*
X63998Y9000D01*
X64005Y8922D01*
X64023Y8845D01*
X64053Y8772D01*
X64094Y8705D01*
X64145Y8645D01*
X64205Y8594D01*
X64272Y8553D01*
X64345Y8523D01*
X64422Y8505D01*
X64500Y8500D01*
X67500D01*
Y1500D01*
X63000D01*
Y9998D01*
X63078Y10005D01*
X63155Y10023D01*
X63228Y10053D01*
X63295Y10094D01*
X63355Y10145D01*
X63406Y10205D01*
X63447Y10272D01*
X63477Y10345D01*
X63495Y10422D01*
X63500Y10500D01*
Y16500D01*
X63495Y16578D01*
X63477Y16655D01*
X63447Y16728D01*
X63406Y16795D01*
X63355Y16855D01*
X63295Y16906D01*
X63228Y16947D01*
X63155Y16977D01*
X63078Y16995D01*
X63000Y17002D01*
Y64500D01*
G37*
G36*
X51653D02*X63000D01*
Y17002D01*
X62922Y16995D01*
X62845Y16977D01*
X62772Y16947D01*
X62705Y16906D01*
X62645Y16855D01*
X62594Y16795D01*
X62553Y16728D01*
X62523Y16655D01*
X62505Y16578D01*
X62500Y16500D01*
Y10500D01*
X62505Y10422D01*
X62523Y10345D01*
X62553Y10272D01*
X62594Y10205D01*
X62645Y10145D01*
X62705Y10094D01*
X62772Y10053D01*
X62845Y10023D01*
X62922Y10005D01*
X63000Y9998D01*
Y1500D01*
X51653D01*
Y10738D01*
X51682Y10767D01*
X51728Y10831D01*
X51964Y11236D01*
X52157Y11665D01*
X52308Y12109D01*
X52418Y12566D01*
X52483Y13031D01*
X52506Y13500D01*
X52483Y13969D01*
X52418Y14434D01*
X52308Y14891D01*
X52157Y15335D01*
X51964Y15764D01*
X51732Y16172D01*
X51685Y16236D01*
X51653Y16268D01*
Y64500D01*
G37*
G36*
X47502D02*X51653D01*
Y16268D01*
X51628Y16292D01*
X51564Y16337D01*
X51492Y16372D01*
X51417Y16396D01*
X51338Y16407D01*
X51259Y16406D01*
X51180Y16393D01*
X51105Y16367D01*
X51035Y16330D01*
X50971Y16283D01*
X50916Y16226D01*
X50870Y16161D01*
X50835Y16090D01*
X50812Y16014D01*
X50800Y15935D01*
X50801Y15856D01*
X50815Y15778D01*
X50840Y15703D01*
X50879Y15633D01*
X51068Y15309D01*
X51221Y14967D01*
X51342Y14612D01*
X51430Y14246D01*
X51482Y13875D01*
X51500Y13500D01*
X51482Y13125D01*
X51430Y12754D01*
X51342Y12388D01*
X51221Y12033D01*
X51068Y11691D01*
X50882Y11365D01*
X50844Y11296D01*
X50819Y11221D01*
X50806Y11144D01*
X50805Y11065D01*
X50816Y10987D01*
X50839Y10912D01*
X50874Y10841D01*
X50919Y10777D01*
X50974Y10721D01*
X51037Y10673D01*
X51107Y10637D01*
X51181Y10612D01*
X51259Y10598D01*
X51338Y10597D01*
X51416Y10608D01*
X51491Y10632D01*
X51561Y10666D01*
X51626Y10712D01*
X51653Y10738D01*
Y1500D01*
X47502D01*
Y8495D01*
X47969Y8517D01*
X48434Y8582D01*
X48891Y8692D01*
X49335Y8843D01*
X49764Y9036D01*
X50172Y9268D01*
X50236Y9315D01*
X50292Y9372D01*
X50337Y9436D01*
X50372Y9508D01*
X50396Y9583D01*
X50407Y9662D01*
X50406Y9741D01*
X50393Y9820D01*
X50367Y9895D01*
X50330Y9965D01*
X50283Y10029D01*
X50226Y10084D01*
X50161Y10130D01*
X50090Y10165D01*
X50014Y10188D01*
X49935Y10200D01*
X49856Y10199D01*
X49778Y10185D01*
X49703Y10160D01*
X49633Y10121D01*
X49309Y9932D01*
X48967Y9779D01*
X48612Y9658D01*
X48246Y9570D01*
X47875Y9518D01*
X47502Y9500D01*
Y17500D01*
X47875Y17482D01*
X48246Y17430D01*
X48612Y17342D01*
X48967Y17221D01*
X49309Y17068D01*
X49635Y16882D01*
X49704Y16844D01*
X49779Y16819D01*
X49856Y16806D01*
X49935Y16805D01*
X50013Y16816D01*
X50088Y16839D01*
X50159Y16874D01*
X50223Y16919D01*
X50279Y16974D01*
X50327Y17037D01*
X50363Y17107D01*
X50388Y17181D01*
X50402Y17259D01*
X50403Y17338D01*
X50392Y17416D01*
X50368Y17491D01*
X50334Y17561D01*
X50288Y17626D01*
X50233Y17682D01*
X50169Y17728D01*
X49764Y17964D01*
X49335Y18157D01*
X48891Y18308D01*
X48434Y18418D01*
X47969Y18483D01*
X47502Y18505D01*
Y64500D01*
G37*
G36*
X43347D02*X47502D01*
Y18505D01*
X47500Y18506D01*
X47031Y18483D01*
X46566Y18418D01*
X46109Y18308D01*
X45665Y18157D01*
X45236Y17964D01*
X44828Y17732D01*
X44764Y17685D01*
X44708Y17628D01*
X44663Y17564D01*
X44628Y17492D01*
X44604Y17417D01*
X44593Y17338D01*
X44594Y17259D01*
X44607Y17180D01*
X44633Y17105D01*
X44670Y17035D01*
X44717Y16971D01*
X44774Y16916D01*
X44839Y16870D01*
X44910Y16835D01*
X44986Y16812D01*
X45065Y16800D01*
X45144Y16801D01*
X45222Y16815D01*
X45297Y16840D01*
X45367Y16879D01*
X45691Y17068D01*
X46033Y17221D01*
X46388Y17342D01*
X46754Y17430D01*
X47125Y17482D01*
X47500Y17500D01*
X47502Y17500D01*
Y9500D01*
X47500Y9500D01*
X47125Y9518D01*
X46754Y9570D01*
X46388Y9658D01*
X46033Y9779D01*
X45691Y9932D01*
X45364Y10118D01*
X45296Y10156D01*
X45221Y10181D01*
X45144Y10194D01*
X45065Y10195D01*
X44987Y10184D01*
X44912Y10161D01*
X44841Y10126D01*
X44777Y10081D01*
X44721Y10026D01*
X44673Y9963D01*
X44637Y9893D01*
X44612Y9819D01*
X44598Y9741D01*
X44597Y9662D01*
X44608Y9584D01*
X44632Y9509D01*
X44666Y9439D01*
X44712Y9374D01*
X44767Y9318D01*
X44831Y9272D01*
X45236Y9036D01*
X45665Y8843D01*
X46109Y8692D01*
X46566Y8582D01*
X47031Y8517D01*
X47500Y8494D01*
X47502Y8495D01*
Y1500D01*
X43347D01*
Y10732D01*
X43372Y10708D01*
X43436Y10663D01*
X43508Y10628D01*
X43583Y10604D01*
X43662Y10593D01*
X43741Y10594D01*
X43820Y10607D01*
X43895Y10633D01*
X43965Y10670D01*
X44029Y10717D01*
X44084Y10774D01*
X44130Y10839D01*
X44165Y10910D01*
X44188Y10986D01*
X44200Y11065D01*
X44199Y11144D01*
X44185Y11222D01*
X44160Y11297D01*
X44121Y11367D01*
X43932Y11691D01*
X43779Y12033D01*
X43658Y12388D01*
X43570Y12754D01*
X43518Y13125D01*
X43500Y13500D01*
X43518Y13875D01*
X43570Y14246D01*
X43658Y14612D01*
X43779Y14967D01*
X43932Y15309D01*
X44118Y15635D01*
X44156Y15704D01*
X44181Y15779D01*
X44194Y15856D01*
X44195Y15935D01*
X44184Y16013D01*
X44161Y16088D01*
X44126Y16159D01*
X44081Y16223D01*
X44026Y16279D01*
X43963Y16327D01*
X43893Y16363D01*
X43819Y16388D01*
X43741Y16402D01*
X43662Y16403D01*
X43584Y16392D01*
X43509Y16368D01*
X43439Y16334D01*
X43374Y16288D01*
X43347Y16262D01*
Y64500D01*
G37*
G36*
X32766D02*X43347D01*
Y16262D01*
X43318Y16233D01*
X43272Y16169D01*
X43036Y15764D01*
X42843Y15335D01*
X42692Y14891D01*
X42582Y14434D01*
X42517Y13969D01*
X42494Y13500D01*
X42517Y13031D01*
X42582Y12566D01*
X42692Y12109D01*
X42843Y11665D01*
X43036Y11236D01*
X43268Y10828D01*
X43315Y10764D01*
X43347Y10732D01*
Y1500D01*
X27500D01*
Y8505D01*
X31657Y8509D01*
X31810Y8546D01*
X31955Y8606D01*
X32090Y8688D01*
X32209Y8791D01*
X32312Y8910D01*
X32394Y9045D01*
X32454Y9190D01*
X32491Y9343D01*
X32500Y9500D01*
X32491Y17657D01*
X32454Y17810D01*
X32394Y17955D01*
X32312Y18090D01*
X32209Y18209D01*
X32090Y18312D01*
X31955Y18394D01*
X31810Y18454D01*
X31657Y18491D01*
X31500Y18500D01*
X27500Y18495D01*
Y58460D01*
X27544Y58487D01*
X29685Y60315D01*
X31513Y62456D01*
X32766Y64500D01*
G37*
G36*
X27500Y1500D02*X18000D01*
Y55140D01*
X19806Y55282D01*
X22544Y55939D01*
X25144Y57016D01*
X27500Y58460D01*
Y18495D01*
X23343Y18491D01*
X23190Y18454D01*
X23045Y18394D01*
X22910Y18312D01*
X22791Y18209D01*
X22688Y18090D01*
X22606Y17955D01*
X22546Y17810D01*
X22509Y17657D01*
X22500Y17500D01*
X22509Y9343D01*
X22546Y9190D01*
X22606Y9045D01*
X22688Y8910D01*
X22791Y8791D01*
X22910Y8688D01*
X23045Y8606D01*
X23190Y8546D01*
X23343Y8509D01*
X23500Y8500D01*
X27500Y8505D01*
Y1500D01*
G37*
G36*
X244000Y139000D02*X289000D01*
Y125000D01*
X244000D01*
Y139000D01*
G37*
G36*
X163000Y197000D02*X267000D01*
Y191500D01*
X163000D01*
Y197000D01*
G37*
G36*
X167000Y123500D02*X125500D01*
Y133379D01*
X127019Y134898D01*
X127064Y134936D01*
X127217Y135115D01*
X127217Y135116D01*
X127341Y135317D01*
X127431Y135535D01*
X127486Y135765D01*
X127505Y136000D01*
X127500Y136059D01*
Y159441D01*
X127505Y159500D01*
X127486Y159735D01*
X127486Y159735D01*
X127431Y159965D01*
X127341Y160183D01*
X127217Y160384D01*
X127064Y160564D01*
X127019Y160602D01*
X125500Y162121D01*
Y197000D01*
X167000D01*
Y123500D01*
G37*
G36*
X244000Y128000D02*X289000D01*
Y114000D01*
X244000D01*
Y128000D01*
G37*
G36*
X158500D02*X167000D01*
Y114000D01*
X158500D01*
Y128000D01*
G37*
G36*
X237500Y184000D02*X247500D01*
Y148000D01*
X237500D01*
Y160007D01*
X242235Y160014D01*
X242465Y160069D01*
X242683Y160159D01*
X242884Y160283D01*
X243064Y160436D01*
X243217Y160616D01*
X243341Y160817D01*
X243431Y161035D01*
X243486Y161265D01*
X243500Y161500D01*
X243486Y170735D01*
X243431Y170965D01*
X243341Y171183D01*
X243217Y171384D01*
X243064Y171564D01*
X242884Y171717D01*
X242683Y171841D01*
X242465Y171931D01*
X242235Y171986D01*
X242000Y172000D01*
X237500Y171993D01*
Y184000D01*
G37*
G36*
X217491D02*X237500D01*
Y171993D01*
X232765Y171986D01*
X232535Y171931D01*
X232317Y171841D01*
X232116Y171717D01*
X231936Y171564D01*
X231783Y171384D01*
X231659Y171183D01*
X231569Y170965D01*
X231514Y170735D01*
X231500Y170500D01*
X231514Y161265D01*
X231569Y161035D01*
X231659Y160817D01*
X231783Y160616D01*
X231936Y160436D01*
X232116Y160283D01*
X232317Y160159D01*
X232535Y160069D01*
X232765Y160014D01*
X233000Y160000D01*
X237500Y160007D01*
Y148000D01*
X217491D01*
Y159982D01*
X217500Y159981D01*
X218442Y160056D01*
X219360Y160276D01*
X220232Y160637D01*
X221038Y161131D01*
X221756Y161744D01*
X222369Y162462D01*
X222863Y163268D01*
X223224Y164140D01*
X223444Y165058D01*
X223500Y166000D01*
X223444Y166942D01*
X223224Y167860D01*
X222863Y168732D01*
X222369Y169538D01*
X221756Y170256D01*
X221038Y170869D01*
X220232Y171363D01*
X219360Y171724D01*
X218442Y171944D01*
X217500Y172019D01*
X217491Y172018D01*
Y184000D01*
G37*
G36*
X202426D02*X217491D01*
Y172018D01*
X216558Y171944D01*
X215640Y171724D01*
X214768Y171363D01*
X213962Y170869D01*
X213244Y170256D01*
X212631Y169538D01*
X212137Y168732D01*
X211776Y167860D01*
X211556Y166942D01*
X211481Y166000D01*
X211556Y165058D01*
X211776Y164140D01*
X212137Y163268D01*
X212631Y162462D01*
X213244Y161744D01*
X213962Y161131D01*
X214768Y160637D01*
X215640Y160276D01*
X216558Y160056D01*
X217491Y159982D01*
Y148000D01*
X202426D01*
Y162803D01*
X202430Y162805D01*
X202533Y162864D01*
X202625Y162938D01*
X202704Y163025D01*
X202766Y163125D01*
X203011Y163612D01*
X203205Y164122D01*
X203352Y164648D01*
X203451Y165184D01*
X203500Y165727D01*
Y166273D01*
X203451Y166816D01*
X203352Y167352D01*
X203205Y167878D01*
X203011Y168388D01*
X202772Y168878D01*
X202708Y168978D01*
X202628Y169066D01*
X202535Y169140D01*
X202432Y169199D01*
X202426Y169202D01*
Y184000D01*
G37*
G36*
X197502D02*X202426D01*
Y169202D01*
X202321Y169242D01*
X202205Y169266D01*
X202087Y169272D01*
X201968Y169260D01*
X201854Y169229D01*
X201745Y169180D01*
X201646Y169115D01*
X201558Y169035D01*
X201483Y168943D01*
X201424Y168840D01*
X201382Y168729D01*
X201357Y168613D01*
X201351Y168494D01*
X201364Y168376D01*
X201395Y168261D01*
X201446Y168154D01*
X201629Y167789D01*
X201774Y167407D01*
X201884Y167013D01*
X201958Y166611D01*
X201995Y166204D01*
Y165796D01*
X201958Y165389D01*
X201884Y164987D01*
X201774Y164593D01*
X201629Y164211D01*
X201450Y163844D01*
X201400Y163737D01*
X201369Y163623D01*
X201356Y163506D01*
X201362Y163388D01*
X201386Y163272D01*
X201428Y163162D01*
X201487Y163060D01*
X201561Y162968D01*
X201649Y162889D01*
X201748Y162824D01*
X201855Y162776D01*
X201969Y162745D01*
X202087Y162732D01*
X202205Y162738D01*
X202320Y162763D01*
X202426Y162803D01*
Y148000D01*
X197502D01*
Y160000D01*
X197773D01*
X198316Y160049D01*
X198852Y160148D01*
X199378Y160295D01*
X199888Y160489D01*
X200378Y160728D01*
X200478Y160792D01*
X200566Y160872D01*
X200640Y160965D01*
X200699Y161068D01*
X200742Y161179D01*
X200766Y161295D01*
X200772Y161413D01*
X200760Y161532D01*
X200729Y161646D01*
X200680Y161755D01*
X200615Y161854D01*
X200535Y161942D01*
X200443Y162017D01*
X200340Y162076D01*
X200229Y162118D01*
X200113Y162143D01*
X199994Y162149D01*
X199876Y162136D01*
X199761Y162105D01*
X199654Y162054D01*
X199289Y161871D01*
X198907Y161726D01*
X198513Y161616D01*
X198111Y161542D01*
X197704Y161505D01*
X197502D01*
Y170495D01*
X197704D01*
X198111Y170458D01*
X198513Y170384D01*
X198907Y170274D01*
X199289Y170129D01*
X199656Y169950D01*
X199763Y169900D01*
X199877Y169869D01*
X199994Y169856D01*
X200112Y169862D01*
X200228Y169886D01*
X200338Y169928D01*
X200440Y169987D01*
X200532Y170061D01*
X200611Y170149D01*
X200676Y170248D01*
X200724Y170355D01*
X200755Y170469D01*
X200768Y170587D01*
X200762Y170705D01*
X200737Y170820D01*
X200695Y170930D01*
X200636Y171033D01*
X200562Y171125D01*
X200475Y171204D01*
X200375Y171266D01*
X199888Y171511D01*
X199378Y171705D01*
X198852Y171852D01*
X198316Y171951D01*
X197773Y172000D01*
X197502D01*
Y184000D01*
G37*
G36*
X192574D02*X197502D01*
Y172000D01*
X197227D01*
X196684Y171951D01*
X196148Y171852D01*
X195622Y171705D01*
X195112Y171511D01*
X194622Y171272D01*
X194522Y171208D01*
X194434Y171128D01*
X194360Y171035D01*
X194301Y170932D01*
X194258Y170821D01*
X194234Y170705D01*
X194228Y170587D01*
X194240Y170468D01*
X194271Y170354D01*
X194320Y170245D01*
X194385Y170146D01*
X194465Y170058D01*
X194557Y169983D01*
X194660Y169924D01*
X194771Y169882D01*
X194887Y169857D01*
X195006Y169851D01*
X195124Y169864D01*
X195239Y169895D01*
X195346Y169946D01*
X195711Y170129D01*
X196093Y170274D01*
X196487Y170384D01*
X196889Y170458D01*
X197296Y170495D01*
X197502D01*
Y161505D01*
X197296D01*
X196889Y161542D01*
X196487Y161616D01*
X196093Y161726D01*
X195711Y161871D01*
X195344Y162050D01*
X195237Y162100D01*
X195123Y162131D01*
X195006Y162144D01*
X194888Y162138D01*
X194772Y162114D01*
X194662Y162072D01*
X194560Y162013D01*
X194468Y161939D01*
X194389Y161851D01*
X194324Y161752D01*
X194276Y161645D01*
X194245Y161531D01*
X194232Y161413D01*
X194238Y161295D01*
X194263Y161180D01*
X194305Y161070D01*
X194364Y160967D01*
X194438Y160875D01*
X194525Y160796D01*
X194625Y160734D01*
X195112Y160489D01*
X195622Y160295D01*
X196148Y160148D01*
X196684Y160049D01*
X197227Y160000D01*
X197502D01*
Y148000D01*
X192574D01*
Y162798D01*
X192679Y162758D01*
X192795Y162734D01*
X192913Y162728D01*
X193032Y162740D01*
X193146Y162771D01*
X193255Y162820D01*
X193354Y162885D01*
X193442Y162965D01*
X193517Y163057D01*
X193576Y163160D01*
X193618Y163271D01*
X193643Y163387D01*
X193649Y163506D01*
X193636Y163624D01*
X193605Y163739D01*
X193554Y163846D01*
X193371Y164211D01*
X193226Y164593D01*
X193116Y164987D01*
X193042Y165389D01*
X193005Y165796D01*
Y166204D01*
X193042Y166611D01*
X193116Y167013D01*
X193226Y167407D01*
X193371Y167789D01*
X193550Y168156D01*
X193600Y168263D01*
X193631Y168377D01*
X193644Y168494D01*
X193638Y168612D01*
X193614Y168728D01*
X193572Y168838D01*
X193513Y168940D01*
X193439Y169032D01*
X193351Y169111D01*
X193252Y169176D01*
X193145Y169224D01*
X193031Y169255D01*
X192913Y169268D01*
X192795Y169262D01*
X192680Y169237D01*
X192574Y169197D01*
Y184000D01*
G37*
G36*
X178000D02*X192574D01*
Y169197D01*
X192570Y169195D01*
X192467Y169136D01*
X192375Y169062D01*
X192296Y168975D01*
X192234Y168875D01*
X191989Y168388D01*
X191795Y167878D01*
X191648Y167352D01*
X191549Y166816D01*
X191500Y166273D01*
Y165727D01*
X191549Y165184D01*
X191648Y164648D01*
X191795Y164122D01*
X191989Y163612D01*
X192228Y163122D01*
X192292Y163022D01*
X192372Y162934D01*
X192465Y162860D01*
X192568Y162801D01*
X192574Y162798D01*
Y148000D01*
X178000D01*
Y184000D01*
G37*
G36*
X62500Y182500D02*X123000D01*
Y164116D01*
X122868Y164171D01*
X122439Y164274D01*
X122000Y164309D01*
X121561Y164274D01*
X121132Y164171D01*
X120725Y164003D01*
X120349Y163772D01*
X120014Y163486D01*
X119728Y163151D01*
X119497Y162775D01*
X119329Y162368D01*
X119226Y161939D01*
X119191Y161500D01*
X119226Y161061D01*
X119329Y160632D01*
X119497Y160225D01*
X119728Y159849D01*
X120014Y159514D01*
X120349Y159228D01*
X120725Y158997D01*
X121132Y158829D01*
X121460Y158750D01*
X121132Y158671D01*
X120725Y158503D01*
X120349Y158272D01*
X120014Y157986D01*
X119728Y157651D01*
X119497Y157275D01*
X119329Y156868D01*
X119226Y156439D01*
X119191Y156000D01*
X119226Y155561D01*
X119329Y155132D01*
X119497Y154725D01*
X119728Y154349D01*
X120014Y154014D01*
X120349Y153728D01*
X120500Y153635D01*
Y136115D01*
X120439Y136061D01*
X118379Y134000D01*
X83365D01*
X83272Y134151D01*
X82986Y134486D01*
X82651Y134772D01*
X82275Y135003D01*
X81868Y135171D01*
X81439Y135274D01*
X81000Y135309D01*
X80561Y135274D01*
X80132Y135171D01*
X79725Y135003D01*
X79349Y134772D01*
X79014Y134486D01*
X78728Y134151D01*
X78497Y133775D01*
X78329Y133368D01*
X78250Y133040D01*
X78171Y133368D01*
X78003Y133775D01*
X77772Y134151D01*
X77486Y134486D01*
X77151Y134772D01*
X76775Y135003D01*
X76368Y135171D01*
X75939Y135274D01*
X75500Y135309D01*
X75061Y135274D01*
X74632Y135171D01*
X74225Y135003D01*
X73849Y134772D01*
X73514Y134486D01*
X73228Y134151D01*
X72997Y133775D01*
X72829Y133368D01*
X72726Y132939D01*
X72691Y132500D01*
X72726Y132061D01*
X72829Y131632D01*
X72997Y131225D01*
X73135Y131000D01*
X62500D01*
Y182500D01*
G37*
G36*
X167000Y184000D02*X39000D01*
Y197000D01*
X167000D01*
Y184000D01*
G37*
G36*
X39500Y160000D02*Y189000D01*
X61000D01*
Y160000D01*
X39500D01*
G37*
G36*
X44000Y158500D02*X67000D01*
Y131000D01*
X44000D01*
Y158500D01*
G37*
G36*
X27868Y197500D02*X42500D01*
Y123500D01*
X19000D01*
Y165018D01*
X19838Y165084D01*
X22606Y165748D01*
X25235Y166837D01*
X27662Y168325D01*
X29827Y170173D01*
X31675Y172338D01*
X33163Y174765D01*
X34252Y177394D01*
X34916Y180162D01*
X35084Y183000D01*
X34916Y185838D01*
X34252Y188606D01*
X33163Y191235D01*
X31675Y193662D01*
X29827Y195827D01*
X27868Y197500D01*
G37*
G36*
X202426Y184000D02*X221000D01*
Y170892D01*
X220232Y171363D01*
X219360Y171724D01*
X218442Y171944D01*
X217500Y172019D01*
X216558Y171944D01*
X215640Y171724D01*
X214768Y171363D01*
X213962Y170869D01*
X213244Y170256D01*
X212631Y169538D01*
X212137Y168732D01*
X211776Y167860D01*
X211556Y166942D01*
X211481Y166000D01*
X211556Y165058D01*
X211776Y164140D01*
X212137Y163268D01*
X212631Y162462D01*
X213244Y161744D01*
X213962Y161131D01*
X214768Y160637D01*
X215640Y160276D01*
X216558Y160056D01*
X217500Y159981D01*
X218442Y160056D01*
X219360Y160276D01*
X220232Y160637D01*
X221000Y161108D01*
Y88500D01*
X202426D01*
Y122025D01*
X202975Y122668D01*
X203509Y123540D01*
X203901Y124485D01*
X204140Y125480D01*
X204200Y126500D01*
X204140Y127520D01*
X203901Y128515D01*
X203509Y129460D01*
X202975Y130332D01*
X202426Y130975D01*
Y162803D01*
X202430Y162805D01*
X202533Y162864D01*
X202625Y162938D01*
X202704Y163025D01*
X202766Y163125D01*
X203011Y163612D01*
X203205Y164122D01*
X203352Y164648D01*
X203451Y165184D01*
X203500Y165727D01*
Y166273D01*
X203451Y166816D01*
X203352Y167352D01*
X203205Y167878D01*
X203011Y168388D01*
X202772Y168878D01*
X202708Y168978D01*
X202628Y169066D01*
X202535Y169140D01*
X202432Y169199D01*
X202426Y169202D01*
Y184000D01*
G37*
G36*
Y88500D02*X197502D01*
Y119996D01*
X197700Y119980D01*
X198720Y120060D01*
X199715Y120299D01*
X200660Y120691D01*
X201532Y121225D01*
X202310Y121890D01*
X202426Y122025D01*
Y88500D01*
G37*
G36*
X197502Y184000D02*X202426D01*
Y169202D01*
X202321Y169242D01*
X202205Y169266D01*
X202087Y169272D01*
X201968Y169260D01*
X201854Y169229D01*
X201745Y169180D01*
X201646Y169115D01*
X201558Y169035D01*
X201483Y168943D01*
X201424Y168840D01*
X201382Y168729D01*
X201357Y168613D01*
X201351Y168494D01*
X201364Y168376D01*
X201395Y168261D01*
X201446Y168154D01*
X201629Y167789D01*
X201774Y167407D01*
X201884Y167013D01*
X201958Y166611D01*
X201995Y166204D01*
Y165796D01*
X201958Y165389D01*
X201884Y164987D01*
X201774Y164593D01*
X201629Y164211D01*
X201450Y163844D01*
X201400Y163737D01*
X201369Y163623D01*
X201356Y163506D01*
X201362Y163388D01*
X201386Y163272D01*
X201428Y163162D01*
X201487Y163060D01*
X201561Y162968D01*
X201649Y162889D01*
X201748Y162824D01*
X201855Y162776D01*
X201969Y162745D01*
X202087Y162732D01*
X202205Y162738D01*
X202320Y162763D01*
X202426Y162803D01*
Y130975D01*
X202310Y131110D01*
X201532Y131775D01*
X200660Y132309D01*
X199715Y132701D01*
X198720Y132940D01*
X197700Y133020D01*
X197502Y133004D01*
Y160000D01*
X197773D01*
X198316Y160049D01*
X198852Y160148D01*
X199378Y160295D01*
X199888Y160489D01*
X200378Y160728D01*
X200478Y160792D01*
X200566Y160872D01*
X200640Y160965D01*
X200699Y161068D01*
X200742Y161179D01*
X200766Y161295D01*
X200772Y161413D01*
X200760Y161532D01*
X200729Y161646D01*
X200680Y161755D01*
X200615Y161854D01*
X200535Y161942D01*
X200443Y162017D01*
X200340Y162076D01*
X200229Y162118D01*
X200113Y162143D01*
X199994Y162149D01*
X199876Y162136D01*
X199761Y162105D01*
X199654Y162054D01*
X199289Y161871D01*
X198907Y161726D01*
X198513Y161616D01*
X198111Y161542D01*
X197704Y161505D01*
X197502D01*
Y170495D01*
X197704D01*
X198111Y170458D01*
X198513Y170384D01*
X198907Y170274D01*
X199289Y170129D01*
X199656Y169950D01*
X199763Y169900D01*
X199877Y169869D01*
X199994Y169856D01*
X200112Y169862D01*
X200228Y169886D01*
X200338Y169928D01*
X200440Y169987D01*
X200532Y170061D01*
X200611Y170149D01*
X200676Y170248D01*
X200724Y170355D01*
X200755Y170469D01*
X200768Y170587D01*
X200762Y170705D01*
X200737Y170820D01*
X200695Y170930D01*
X200636Y171033D01*
X200562Y171125D01*
X200475Y171204D01*
X200375Y171266D01*
X199888Y171511D01*
X199378Y171705D01*
X198852Y171852D01*
X198316Y171951D01*
X197773Y172000D01*
X197502D01*
Y184000D01*
G37*
G36*
X192574Y122493D02*X193090Y121890D01*
X193868Y121225D01*
X194740Y120691D01*
X195685Y120299D01*
X196680Y120060D01*
X197502Y119996D01*
Y88500D01*
X192574D01*
Y122493D01*
G37*
G36*
Y184000D02*X197502D01*
Y172000D01*
X197227D01*
X196684Y171951D01*
X196148Y171852D01*
X195622Y171705D01*
X195112Y171511D01*
X194622Y171272D01*
X194522Y171208D01*
X194434Y171128D01*
X194360Y171035D01*
X194301Y170932D01*
X194258Y170821D01*
X194234Y170705D01*
X194228Y170587D01*
X194240Y170468D01*
X194271Y170354D01*
X194320Y170245D01*
X194385Y170146D01*
X194465Y170058D01*
X194557Y169983D01*
X194660Y169924D01*
X194771Y169882D01*
X194887Y169857D01*
X195006Y169851D01*
X195124Y169864D01*
X195239Y169895D01*
X195346Y169946D01*
X195711Y170129D01*
X196093Y170274D01*
X196487Y170384D01*
X196889Y170458D01*
X197296Y170495D01*
X197502D01*
Y161505D01*
X197296D01*
X196889Y161542D01*
X196487Y161616D01*
X196093Y161726D01*
X195711Y161871D01*
X195344Y162050D01*
X195237Y162100D01*
X195123Y162131D01*
X195006Y162144D01*
X194888Y162138D01*
X194772Y162114D01*
X194662Y162072D01*
X194560Y162013D01*
X194468Y161939D01*
X194389Y161851D01*
X194324Y161752D01*
X194276Y161645D01*
X194245Y161531D01*
X194232Y161413D01*
X194238Y161295D01*
X194263Y161180D01*
X194305Y161070D01*
X194364Y160967D01*
X194438Y160875D01*
X194525Y160796D01*
X194625Y160734D01*
X195112Y160489D01*
X195622Y160295D01*
X196148Y160148D01*
X196684Y160049D01*
X197227Y160000D01*
X197502D01*
Y133004D01*
X196680Y132940D01*
X195685Y132701D01*
X194740Y132309D01*
X193868Y131775D01*
X193090Y131110D01*
X192574Y130507D01*
Y162798D01*
X192679Y162758D01*
X192795Y162734D01*
X192913Y162728D01*
X193032Y162740D01*
X193146Y162771D01*
X193255Y162820D01*
X193354Y162885D01*
X193442Y162965D01*
X193517Y163057D01*
X193576Y163160D01*
X193618Y163271D01*
X193643Y163387D01*
X193649Y163506D01*
X193636Y163624D01*
X193605Y163739D01*
X193554Y163846D01*
X193371Y164211D01*
X193226Y164593D01*
X193116Y164987D01*
X193042Y165389D01*
X193005Y165796D01*
Y166204D01*
X193042Y166611D01*
X193116Y167013D01*
X193226Y167407D01*
X193371Y167789D01*
X193550Y168156D01*
X193600Y168263D01*
X193631Y168377D01*
X193644Y168494D01*
X193638Y168612D01*
X193614Y168728D01*
X193572Y168838D01*
X193513Y168940D01*
X193439Y169032D01*
X193351Y169111D01*
X193252Y169176D01*
X193145Y169224D01*
X193031Y169255D01*
X192913Y169268D01*
X192795Y169262D01*
X192680Y169237D01*
X192574Y169197D01*
Y184000D01*
G37*
G36*
X178000D02*X192574D01*
Y169197D01*
X192570Y169195D01*
X192467Y169136D01*
X192375Y169062D01*
X192296Y168975D01*
X192234Y168875D01*
X191989Y168388D01*
X191795Y167878D01*
X191648Y167352D01*
X191549Y166816D01*
X191500Y166273D01*
Y165727D01*
X191549Y165184D01*
X191648Y164648D01*
X191795Y164122D01*
X191989Y163612D01*
X192228Y163122D01*
X192292Y163022D01*
X192372Y162934D01*
X192465Y162860D01*
X192568Y162801D01*
X192574Y162798D01*
Y130507D01*
X192425Y130332D01*
X191891Y129460D01*
X191499Y128515D01*
X191260Y127520D01*
X191180Y126500D01*
X191260Y125480D01*
X191499Y124485D01*
X191891Y123540D01*
X192425Y122668D01*
X192574Y122493D01*
Y88500D01*
X178000D01*
Y126253D01*
X178058Y125511D01*
X178290Y124547D01*
X178669Y123631D01*
X179187Y122786D01*
X179831Y122031D01*
X180586Y121387D01*
X181431Y120869D01*
X182347Y120490D01*
X183311Y120258D01*
X184300Y120181D01*
X185289Y120258D01*
X186253Y120490D01*
X187169Y120869D01*
X188014Y121387D01*
X188769Y122031D01*
X189413Y122786D01*
X189931Y123631D01*
X190310Y124547D01*
X190542Y125511D01*
X190600Y126500D01*
X190542Y127489D01*
X190310Y128453D01*
X189931Y129369D01*
X189413Y130214D01*
X188769Y130969D01*
X188014Y131613D01*
X187169Y132131D01*
X186253Y132510D01*
X185289Y132742D01*
X184300Y132819D01*
X183311Y132742D01*
X182347Y132510D01*
X181431Y132131D01*
X180586Y131613D01*
X179831Y130969D01*
X179187Y130214D01*
X178669Y129369D01*
X178290Y128453D01*
X178058Y127489D01*
X178000Y126747D01*
Y184000D01*
G37*
G36*
X256500Y196500D02*X291577D01*
X290457Y195543D01*
X288649Y193426D01*
X287195Y191053D01*
X286130Y188482D01*
X285480Y185775D01*
X285261Y183000D01*
X285480Y180225D01*
X286130Y177518D01*
X287195Y174947D01*
X288649Y172574D01*
X290457Y170457D01*
X292574Y168649D01*
X294947Y167195D01*
X297518Y166130D01*
X300225Y165480D01*
X301500Y165380D01*
Y114000D01*
X256500D01*
Y196500D01*
G37*
G54D34*X119000Y129000D02*X79000D01*
X75500Y132500D01*
X126000Y136000D02*X119000Y129000D01*
X122000Y135500D02*X119750Y133250D01*
X119000Y132500D02*X121500Y135000D01*
X126000Y159500D02*Y136000D01*
X124000Y161500D02*X126000Y159500D01*
X122000Y161500D02*X124000D01*
X122000Y156000D02*Y135500D01*
X81000Y132500D02*X119000D01*
G54D33*G36*
X228000Y17500D02*Y9500D01*
X236000D01*
Y17500D01*
X228000D01*
G37*
G54D35*X252000Y13500D03*
G54D33*G36*
X268000Y17500D02*Y9500D01*
X276000D01*
Y17500D01*
X268000D01*
G37*
G54D35*X292000Y13500D03*
G54D36*X184300Y73500D03*
X197700D03*
G54D37*X303000Y73000D03*
G54D33*G36*
X143500Y17500D02*Y9500D01*
X151500D01*
Y17500D01*
X143500D01*
G37*
G54D35*X167500Y13500D03*
G54D33*G36*
X103500Y17500D02*Y9500D01*
X111500D01*
Y17500D01*
X103500D01*
G37*
G54D35*X127500Y13500D03*
G54D33*G36*
X63500Y17500D02*Y9500D01*
X71500D01*
Y17500D01*
X63500D01*
G37*
G36*
X23500D02*Y9500D01*
X31500D01*
Y17500D01*
X23500D01*
G37*
G54D35*X47500Y13500D03*
G54D37*X17000Y73000D03*
G54D35*X87500Y13500D03*
G54D37*X303000Y183000D03*
X17000D03*
G54D33*G36*
X233000Y170500D02*Y161500D01*
X242000D01*
Y170500D01*
X233000D01*
G37*
G54D38*X217500Y166000D03*
X197500D03*
G54D36*X184300Y126500D03*
X197700D03*
G54D39*X68500Y133500D03*
X75500Y132500D03*
X81000D03*
X69000Y77500D03*
Y83000D03*
X70000Y126000D03*
X149000Y77500D03*
Y83000D03*
X44000D03*
Y77500D03*
X106500Y100000D03*
X26500D03*
X131500Y121000D03*
X38000Y126500D03*
X106500Y94500D03*
X26500D03*
X55000Y89000D03*
X65500Y70500D03*
X60427Y70645D03*
X55000Y70500D03*
X49927Y70645D03*
X122000Y161500D03*
Y156000D03*
X113000Y139100D03*
X118000Y139000D03*
X150000Y126200D03*
X135000Y89000D03*
X122500Y83000D03*
Y77500D03*
X145073Y70355D03*
X140000Y70500D03*
X134573Y70355D03*
X129500Y70500D03*
X148000Y138000D03*
X46500Y149500D03*
X51000D03*
X231000Y100000D03*
X285000Y121000D03*
X256000D03*
X231000Y94500D03*
X273500Y77500D03*
X259500Y89000D03*
X273500Y83000D03*
X247000D03*
Y77500D03*
X212500Y71500D03*
X269573Y70355D03*
X264500Y70500D03*
X259073Y70355D03*
X254000Y70500D03*
X218000Y71500D03*
X212500Y76000D03*
X218000D03*
X212500Y80500D03*
X218000D03*
Y85000D03*
Y89500D03*
Y94000D03*
Y98500D03*
X212500Y85000D03*
Y89500D03*
Y94000D03*
Y98500D03*
X191500Y52500D03*
X187000D03*
X182500D03*
X191500Y57000D03*
X187000D03*
X191500Y61500D03*
X187000D03*
X182500D03*
X200500D03*
X196000D03*
X205000D03*
X182500Y57000D03*
X191000Y67500D03*
Y79500D03*
X182500Y13500D03*
X188000D03*
X182500Y19000D03*
X188000D03*
X193500Y13500D03*
Y19000D03*
Y36000D03*
Y31000D03*
X199000Y13500D03*
Y19000D03*
Y36000D03*
Y31000D03*
X182500Y36000D03*
X188000D03*
X182500Y31000D03*
X188000D03*
X74000Y187000D03*
X108500D03*
X119500Y174500D03*
Y179500D03*
X91000Y187000D03*
X87600Y179500D03*
X83000D03*
X58500Y187000D03*
X58000Y168000D03*
X49000D03*
X53500D03*
X55500Y149500D03*
X60000D03*
G54D40*G54D41*G54D42*G54D43*G54D41*G54D43*G54D41*G54D43*G54D44*G54D42*M02*
